<?xml version="1.0" standalone="no"?>
<!DOCTYPE svg PUBLIC "-//W3C//DTD SVG 1.1//EN" "http://www.w3.org/Graphics/SVG/1.1/DTD/svg11.dtd" >
<svg>
<metadata>
Created by FontForge 20090622 at Tue Jun 23 21:28:43 2015
 By deploy user
Typeface &#194;&#169; Galdino Otten. 2015. All Rights Reserved
</metadata>
<defs>
<font id="ThinCool" horiz-adv-x="1024" >
  <font-face 
    font-family="Thin Cool"
    font-weight="400"
    font-stretch="normal"
    units-per-em="2048"
    panose-1="2 0 5 0 0 0 0 0 0 0"
    ascent="1638"
    descent="-410"
    x-height="1023"
    cap-height="1436"
    bbox="-196 -422 1958 1716"
    underline-thickness="150"
    underline-position="-142"
    unicode-range="U+0020-U+F002"
  />
<missing-glyph 
d="M693 739q8 12 8 27v306q0 91 -63 156t-152 65q-90 0 -153 -65t-63 -156v-159q0 -20 14 -34t34 -14h2q19 0 33 14q15 14 15 34v159q0 49 34 84q35 35 84 35q48 0 83 -35t35 -84v-271q0 -13 -7 -25l-157 -263q-6 -11 -6 -24l-1 -90q0 -20 14 -34t34 -14h1q20 0 34 14t14 34
v84q0 14 8 26zM437 139q0 -20 14 -34t34 -14h1q20 0 34 14t14 34v58q0 20 -14 34t-34 14h-1q-20 0 -34 -14t-14 -34v-58zM221 14q-115 100 -115 243v910q0 142 115 243q114 100 276 100q161 0 275 -100q115 -101 115 -243v-910q0 -143 -115 -243q-114 -100 -275 -100
q-162 0 -276 100z" />
    <glyph glyph-name=".notdef" 
d="M693 739q8 12 8 27v306q0 91 -63 156t-152 65q-90 0 -153 -65t-63 -156v-159q0 -20 14 -34t34 -14h2q19 0 33 14q15 14 15 34v159q0 49 34 84q35 35 84 35q48 0 83 -35t35 -84v-271q0 -13 -7 -25l-157 -263q-6 -11 -6 -24l-1 -90q0 -20 14 -34t34 -14h1q20 0 34 14t14 34
v84q0 14 8 26zM437 139q0 -20 14 -34t34 -14h1q20 0 34 14t14 34v58q0 20 -14 34t-34 14h-1q-20 0 -34 -14t-14 -34v-58zM221 14q-115 100 -115 243v910q0 142 115 243q114 100 276 100q161 0 275 -100q115 -101 115 -243v-910q0 -143 -115 -243q-114 -100 -275 -100
q-162 0 -276 100z" />
    <glyph glyph-name=".null" horiz-adv-x="0" 
 />
    <glyph glyph-name="nonmarkingreturn" horiz-adv-x="508" 
 />
    <glyph glyph-name="space" unicode=" " horiz-adv-x="508" 
 />
    <glyph glyph-name="space" unicode="&#xa0;" horiz-adv-x="508" 
 />
    <glyph glyph-name="exclam" unicode="!" horiz-adv-x="223" 
d="M78 109q0 16 12 28q11 11 27 11h1q16 0 28 -11q11 -12 11 -28v-67q0 -17 -11 -28q-12 -12 -28 -12h-1q-16 0 -27 12q-12 11 -12 28v67zM118 1448q19 0 35 -24q19 -30 19 -76l-15 -979q0 -22 -11 -36q-12 -15 -28 -15h-1q-16 0 -27 15q-12 14 -12 36l-20 988q3 41 23 68
q18 23 36 23h1z" />
    <glyph glyph-name="quotedbl" unicode="&#x22;" horiz-adv-x="385" 
d="M126 1643q32 0 32 -27l-9 -269q0 -14 -23 -14h-1q-23 0 -23 14l-12 271q4 25 35 25h1zM257 1646q32 0 32 -28l-9 -269q0 -13 -23 -13v0q-24 0 -24 13l-12 272q4 25 36 25v0z" />
    <glyph glyph-name="numbersign" unicode="#" horiz-adv-x="1182" 
d="M689 600h-185l49 186h186zM1074 786q33 0 42 32v1q3 14 -4 23q-7 10 -20 10h-269l72 269q4 13 -3 23t-21 10h-1q-33 0 -41 -33l-72 -269h-186l72 269q4 13 -3 23t-21 10h-1q-33 0 -41 -33l-72 -269h-269q-33 0 -42 -33v-1q-4 -13 4 -23q7 -9 20 -9h269l-50 -186h-268
q-33 0 -42 -33v0q-4 -14 3 -24q7 -9 21 -9h268l-72 -269q-3 -14 4 -23q7 -10 20 -10h1q33 0 42 33l72 269h185l-72 -269q-3 -14 4 -23q7 -10 20 -10h1q33 0 42 33l72 269h268q33 0 42 33v0q4 14 -3 23q-7 10 -21 10h-268l49 186h269z" />
    <glyph glyph-name="dollar" unicode="$" horiz-adv-x="635" 
d="M178 1025q-12 10 -12 24l2 230q0 76 94 96v-386zM417 834q12 -10 12 -24l-3 -639q0 -76 -94 -96v796zM467 1090q41 0 41 33v156q0 65 -51 114q-50 48 -125 59v138q0 46 -35 46h-1q-34 0 -34 -46v-138q-75 -11 -125 -59q-51 -49 -51 -114v-285q0 -14 12 -24l164 -70v-825
q-94 21 -94 96v376q0 34 -41 34h-1q-40 0 -40 -34v-376q0 -64 51 -114q50 -48 125 -59v-138q0 -46 34 -46h1q35 0 35 46v138q75 11 125 59q51 50 51 114v695q0 14 -12 24l-164 70v415q94 -20 94 -96v-156q0 -33 41 -33v0z" />
    <glyph glyph-name="percent" unicode="%" horiz-adv-x="744" 
d="M148 1218v-282q0 -38 39 -38t39 38v282q0 39 -39 39t-39 -39zM96 846q-37 38 -37 90v282q0 53 37 90q38 38 91 38q52 0 90 -38q37 -37 37 -90v-282q0 -52 -37 -90q-38 -37 -90 -37q-53 0 -91 37zM486 431v-282q0 -39 39 -39t39 39v282q0 38 -39 38t-39 -38zM434 59
q-37 37 -37 90v282q0 52 37 90q38 37 91 37q52 0 90 -37q37 -38 37 -90v-282q0 -53 -37 -90q-38 -38 -90 -38q-53 0 -91 38zM629 1434q-42 15 -57 -26l-500 -1373q-6 -18 2 -35q9 -16 27 -22h1q40 -12 54 27l500 1373q15 41 -27 56v0z" />
    <glyph glyph-name="ampersand" unicode="&#x26;" horiz-adv-x="696" 
d="M173 160q-43 41 -43 99v485q0 58 43 99t104 41t104 -41t43 -99v-485q0 -58 -43 -99t-104 -41t-104 41zM224 1270q0 21 16 36q15 15 37 15t38 -15q15 -15 15 -36v-237q0 -21 -15 -36q-16 -15 -38 -15t-37 15q-16 15 -16 36v237zM651 466l-69 34l-79 -145v389q0 65 -38 119
q-37 53 -98 78q42 38 42 92v237q0 52 -39 89q-38 37 -93 37q-54 0 -92 -37q-39 -37 -39 -89v-237q0 -54 42 -92q-61 -25 -98 -78q-38 -54 -38 -119v-485q0 -89 66 -152t159 -63q84 0 147 52v-106h78l1 203z" />
    <glyph glyph-name="quotesingle" unicode="'" horiz-adv-x="327" 
d="M135 1534q32 0 32 -28l-9 -269q0 -13 -23 -13h-1q-23 0 -23 13l-12 272q4 25 35 25h1z" />
    <glyph glyph-name="parenleft" unicode="(" horiz-adv-x="500" 
d="M396 1514q10 -17 1 -34q-46 -90 -80 -179q-45 -114 -72 -260q-28 -146 -28 -321q1 -125 14 -233q12 -109 35 -209q23 -99 62 -200q30 -76 68 -151q9 -18 -1 -34q-10 -17 -29 -17t-29 17q-107 173 -164 379q-59 216 -59 448q0 212 58 418q55 198 165 376q10 16 29 16
q20 0 30 -16z" />
    <glyph glyph-name="parenright" unicode=")" horiz-adv-x="490" 
d="M148 1530q20 0 30 -16q110 -178 165 -376q58 -206 58 -418q0 -232 -60 -448q-56 -206 -163 -379q-10 -17 -30 -17q-19 0 -29 17q-10 16 -1 34q39 75 68 151q39 101 63 200q23 100 35 209q12 108 13 233q0 175 -27 321t-72 260q-35 89 -80 179q-9 17 1 34q10 16 29 16z
" />
    <glyph glyph-name="asterisk" unicode="*" horiz-adv-x="672" 
d="M379 1574q-34 -69 -34 -87q0 -2 1 -2q19 -8 74 39q54 47 74 39q12 -5 22 -32q9 -28 2 -40q-10 -19 -81 -19q-71 1 -81 -18q0 -1 1 -3q11 -14 78 -43q60 -25 65 -48q3 -15 -17 -39q-20 -25 -35 -24q-21 2 -57 61q-37 60 -57 65q-1 1 -2 0q-12 -17 -5 -90q7 -70 -9 -85
q-10 -9 -38 -2q-28 6 -34 19q-10 22 20 81q34 67 33 85q0 3 -1 3q-19 8 -72 -38q-54 -47 -72 -39q-13 5 -23 33q-9 27 -2 39q10 19 79 18t79 18l-1 2q-10 13 -78 44q-60 27 -63 51q-2 15 16 37q19 23 34 23q21 1 57 -58q38 -63 57 -67q2 -1 2 0q12 17 3 90q-9 70 9 83
q11 9 39 4q28 -6 35 -18q12 -21 -18 -82z" />
    <glyph glyph-name="plus" unicode="+" horiz-adv-x="813" 
d="M457 540v189q0 33 -33 33v0q-33 0 -33 -33v-189h-189q-33 0 -33 -33v0q0 -33 33 -33h189v-189q0 -33 33 -33v0q33 0 33 33v189h189q33 0 33 33v0q0 33 -33 33h-189z" />
    <glyph glyph-name="comma" unicode="," horiz-adv-x="313" 
d="M144 103q0 -3 -1 3v0q-2 37 -39 37v0q-17 0 -28 -12q-12 -11 -12 -28v-67q0 -16 12 -28q11 -11 28 -11h1q-2 -22 -10 -35q-6 -12 -30 -27q-5 -3 3 -14q8 -12 15 -14q20 -6 46 39q14 25 14 66v22q1 6 1 2v67z" />
    <glyph glyph-name="hyphen" unicode="-" horiz-adv-x="543" 
d="M81 445v79h370v-79h-370z" />
    <glyph glyph-name="hyphen" unicode="&#xad;" horiz-adv-x="543" 
d="M81 445v79h370v-79h-370z" />
    <glyph glyph-name="period" unicode="." horiz-adv-x="198" 
d="M49 38q0 -16 11 -27q12 -12 28 -12h1q16 0 28 12q11 11 11 27v68q0 16 -11 27q-12 12 -28 12h-1q-16 0 -28 -12q-11 -11 -11 -27v-68z" />
    <glyph glyph-name="slash" unicode="/" horiz-adv-x="473" 
d="M408 1464q-16 5 -30 -5q-14 -8 -18 -24l-354 -1402q-5 -17 2 -31q9 -16 24 -21l1 -1q16 -5 31 5q13 8 18 25l355 1401q3 17 -4 31q-9 16 -24 21z" />
    <glyph glyph-name="zero" unicode="0" horiz-adv-x="464" 
d="M97 1404q-54 -52 -54 -125v-1112q0 -72 54 -124t129 -52q76 0 130 52t54 124v1112q0 73 -54 125q-54 51 -130 51q-75 0 -129 -51zM331 1081v-914q0 -42 -31 -71q-30 -30 -74 -30q-43 0 -73 30q-7 7 -13 15zM122 329v950q0 42 31 72q30 29 73 29q44 0 74 -29
q11 -11 18 -23z" />
    <glyph glyph-name="one" unicode="1" horiz-adv-x="246" 
d="M125 1435q-26 0 -26 -26v-25q0 -95 -81 -148q0 -3 0 -2v-41q0 -15 14 -23q13 -8 26 1q0 -1 1 0q13 8 26 1q14 -8 14 -23v-1126q0 -26 26 -26h27q26 0 26 26v1386q0 26 -26 26h-27z" />
    <glyph glyph-name="two" unicode="2" horiz-adv-x="450" 
d="M405 907q9 11 10 25v317q0 77 -51 131t-124 54q-72 0 -124 -54q-51 -54 -51 -131v-80q0 -16 11 -28q12 -11 28 -11h1q16 0 28 11q11 12 11 28v80q0 42 28 71q29 29 68 29q40 0 68 -29t28 -71v-287q0 -15 -10 -27l-251 -176q-10 -11 -10 -27v-732h8v-5h267q16 0 27 12
q12 11 12 27v4q0 16 -12 27q-11 12 -27 12h-157q-16 0 -27 11q-12 12 -12 28v579q0 15 10 26z" />
    <glyph glyph-name="three" unicode="3" horiz-adv-x="469" 
d="M397 828q8 9 8 19v416q0 75 -51 128t-124 53q-72 0 -124 -53q-51 -53 -51 -128v-81q0 -36 36 -36h7q36 0 36 36v81q0 40 28 69q29 29 68 29q40 0 68 -29t28 -69v-387q0 -11 -7 -20l-159 -82q-13 -13 -6 -31q8 -17 27 -17h100q19 0 29 -16q16 -24 16 -52v-477
q0 -40 -28 -68t-68 -28q-39 0 -68 28q-28 28 -28 68v57q0 16 -11 27q-12 12 -28 12q-17 0 -28 -12q-12 -11 -12 -27v-23q1 -48 2 -50q6 -68 56 -114q49 -46 117 -46q73 0 124 52q51 51 51 124v477q0 68 -40 105q-32 30 -37 25z" />
    <glyph glyph-name="four" unicode="4" horiz-adv-x="497" 
d="M154 673q-18 0 -20 14q-1 8 5 33l152 520q2 7 10 7q8 -1 8 -8v-539q0 -27 -30 -27h-125zM389 1391q0 20 -15 35q-14 14 -34 14h-48q-32 0 -39 -31l-218 -778q0 -16 11 -27q12 -12 28 -12h212q23 0 23 -23v-529q0 -16 12 -27q11 -12 28 -12v0q17 0 28 12q12 11 12 27v532
q0 20 20 20h14q16 0 28 12t12 28v1q0 17 -12 28q-12 12 -28 12h-25q-9 0 -9 10v708z" />
    <glyph glyph-name="five" unicode="5" horiz-adv-x="510" 
d="M452 426v282q0 78 -51 133q-51 56 -124 56q-42 0 -80 -21l31 464q0 17 17 17h149q16 0 28 12q11 11 11 27v5q0 16 -11 28q-12 11 -28 11h-206q-16 0 -28 -11q-11 -11 -11 -28l-47 -663q0 -3 1 -7v-9q3 -36 38 -36h1q16 0 28 11q11 12 11 28v-17q0 43 28 72q29 30 68 30
q40 0 68 -30q28 -29 28 -72v-521q0 -42 -28 -72t-68 -30q-39 0 -68 30q-28 30 -28 72v82q0 16 -11 28q-12 11 -28 11h-1q-16 0 -28 -11q-11 -12 -11 -28v-82q0 -78 51 -133q52 -55 124 -55q73 0 124 55t51 133v239v0z" />
    <glyph glyph-name="six" unicode="6" horiz-adv-x="524" 
d="M366 692q28 -29 28 -69v-472q0 -39 -30 -66q-31 -28 -74 -28q-44 0 -75 28q-30 27 -30 66v496q0 11 5 20q35 55 108 53q40 0 68 -28zM435 1159q16 0 27 12q12 11 12 28v75q0 67 -54 115t-130 48q-77 0 -131 -48t-54 -115v-1123q0 -67 54 -115t131 -48q76 0 130 48t54 115
v472q0 74 -52 126q-51 52 -124 52q-49 0 -102 -24q-11 -5 -11 8v489q0 38 30 66q31 27 75 27q43 0 74 -27q30 -28 30 -66v-75q0 -17 12 -28q11 -12 28 -12h1z" />
    <glyph glyph-name="seven" unicode="7" horiz-adv-x="487" 
d="M103 1433q-16 0 -28 -11q-12 -12 -12 -29v-2q0 -17 12 -29t28 -12h182q18 0 30 -14q12 -13 9 -32l-142 -1264q-2 -18 10 -32q12 -13 30 -13h1q35 0 40 34l154 1350q3 22 -11 38t-36 16h-267z" />
    <glyph glyph-name="eight" unicode="8" horiz-adv-x="464" 
d="M315 166q0 -37 -26 -64t-64 -30q-37 3 -63 30t-26 64v579q0 37 26 64q26 26 63 29q38 -3 64 -29q26 -27 26 -64v-579zM136 1265q0 37 26 64t63 30q38 -3 64 -30t26 -64v-250q0 -36 -26 -63t-64 -30q-37 3 -63 30t-26 63v250zM395 1016l-1 186l1 64q0 67 -46 116
q-45 50 -112 57v1h-2h-2q3 0 -8 0q-10 0 -7 0h-2h-3v-1q-66 -7 -111 -57q-46 -49 -46 -116v-52v-198q0 -83 66 -136q-66 -52 -66 -135v-52v-527q0 -67 46 -117q45 -49 111 -57v0q1 -1 2 -1h3q-3 0 7 1q10 -1 8 -1h2q2 0 2 1v0q67 8 112 57q46 50 46 117l-1 516l1 63
q0 83 -66 135q66 53 66 136z" />
    <glyph glyph-name="nine" unicode="9" horiz-adv-x="538" 
d="M180 704q-28 28 -28 69v502q0 38 30 66q31 27 74 27q44 0 75 -27q30 -28 30 -66v-526q0 -12 -5 -20q-35 -55 -108 -54q-40 1 -68 29zM111 276q-16 0 -27 -11q-12 -12 -12 -28v-75q0 -68 54 -115q54 -48 130 -48q77 0 131 48q54 47 54 115v1113q0 67 -54 115t-131 48
q-76 0 -130 -48t-54 -115v-502q0 -74 52 -126q51 -53 124 -53q49 0 102 24q11 5 11 -7v-449q0 -39 -30 -66q-31 -28 -75 -28q-43 0 -74 28q-30 27 -30 66v75q0 16 -12 28q-11 11 -28 11h-1z" />
    <glyph glyph-name="colon" unicode=":" horiz-adv-x="315" 
d="M98 477q0 -16 11 -27q12 -12 28 -12h1q16 0 28 12q11 11 11 27v68q0 16 -11 27q-12 12 -28 12h-1q-16 0 -28 -12q-11 -11 -11 -27v-68zM98 44q0 -16 11 -27q12 -12 28 -12h1q16 0 28 12q11 11 11 27v68q0 16 -11 27q-12 12 -28 12h-1q-16 0 -28 -12q-11 -11 -11 -27v-68z
" />
    <glyph glyph-name="semicolon" unicode=";" horiz-adv-x="311" 
d="M82 466q0 -16 12 -27q11 -12 28 -12v0q17 0 28 12q12 11 12 27v68q0 16 -12 27q-11 12 -28 12v0q-17 0 -28 -12q-12 -11 -12 -27v-68zM162 101q0 -4 -1 2v0q-2 37 -39 37v0q-17 0 -28 -12q-12 -11 -12 -27v-68q0 -16 12 -27q11 -12 28 -12h1v0q-2 -22 -10 -35
q-6 -11 -30 -26q-5 -4 3 -15t15 -13q20 -6 46 39q14 25 14 65v22q1 6 1 2v68z" />
    <glyph glyph-name="semicolon" unicode="&#x37e;" horiz-adv-x="311" 
d="M82 466q0 -16 12 -27q11 -12 28 -12v0q17 0 28 12q12 11 12 27v68q0 16 -12 27q-11 12 -28 12v0q-17 0 -28 -12q-12 -11 -12 -27v-68zM162 101q0 -4 -1 2v0q-2 37 -39 37v0q-17 0 -28 -12q-12 -11 -12 -27v-68q0 -16 12 -27q11 -12 28 -12h1v0q-2 -22 -10 -35
q-6 -11 -30 -26q-5 -4 3 -15t15 -13q20 -6 46 39q14 25 14 65v22q1 6 1 2v68z" />
    <glyph glyph-name="less" unicode="&#x3c;" horiz-adv-x="794" 
d="M703 143q0 -23 -20 -35t-41 -1l-511 285q-21 12 -21 36v97q0 24 21 36l511 285q21 11 41 -1t20 -35v-1q0 -24 -20 -36l-451 -261q-21 -12 -21 -36q0 -23 21 -35l451 -261q20 -12 20 -36v-1z" />
    <glyph glyph-name="equal" unicode="=" horiz-adv-x="907" 
d="M157 610q-40 0 -40 40v1q0 41 40 41h548q40 0 40 -41v-1q0 -40 -40 -40h-548zM157 260q-40 0 -40 41v0q0 41 40 41h548q40 0 40 -41v0q0 -41 -40 -41h-548z" />
    <glyph glyph-name="greater" unicode="&#x3e;" horiz-adv-x="800" 
d="M90 117q0 -23 20 -35t41 -1l511 285q21 12 21 36v97q0 25 -21 36l-511 285q-21 11 -41 -1t-20 -35v-1q0 -24 20 -35l452 -262q20 -12 20 -35q0 -24 -20 -36l-452 -261q-20 -12 -20 -36v-1z" />
    <glyph glyph-name="question" unicode="?" horiz-adv-x="610" 
d="M511 656q8 12 8 27v306q0 91 -63 156t-152 65q-90 0 -153 -65t-63 -156v-159q0 -20 14 -34t34 -14h2q19 0 33 14q15 14 15 34v159q0 49 34 84q35 35 84 35q48 0 83 -35t35 -84v-271q0 -13 -7 -25l-157 -263q-6 -11 -6 -24l-1 -90q0 -20 14 -34t34 -14h1q20 0 34 14t14 34
v84q0 14 8 26zM255 56q0 -20 14 -34t34 -14h1q20 0 34 14t14 34v58q0 20 -14 34t-34 14h-1q-20 0 -34 -14t-14 -34v-58z" />
    <glyph glyph-name="at" unicode="@" horiz-adv-x="1029" 
d="M597 384q-8 -40 -37 -71q-30 -34 -64 -34q-40 0 -69 30q-29 29 -29 71v660q0 42 29 72q29 31 69 30q86 -3 101 -96v-662zM544 -101q-164 10 -276 135q-111 123 -111 290v885q0 128 100 219q99 91 239 91q141 0 240 -91q100 -91 100 -219v-921q0 -31 -19 -55
q-19 -25 -48 -30q-38 -6 -67 19q-28 24 -28 61v910q0 39 -39 39q-38 0 -38 -39v-41q-29 73 -101 73q-74 0 -126 -54q-53 -54 -53 -131v-660q0 -76 53 -130q52 -55 126 -55q71 0 111 75q0 -54 36 -96q42 -49 112 -49q65 0 111 46q47 47 47 112l-1 926q0 160 -122 273
t-294 113q-171 0 -293 -113t-122 -273v-882q0 -198 132 -345q134 -148 328 -159q201 -11 351 124q12 11 11 27q0 15 -12 25l-4 4q-23 21 -48 -1q-127 -112 -295 -103z" />
    <glyph glyph-name="A" unicode="A" horiz-adv-x="472" 
d="M239 1077l93 -756q3 -16 -15 -16h-156q-17 0 -15 16zM278 1408q1 -4 0 1t-4 11q-1 3 -2 4q-2 3 -6 7l-4 4q-3 1 -7 3q-5 2 -8 3h-1l-1 1h-1q3 -1 -5 -1q-7 0 -4 1h-1q-1 0 -1 -1h-2q-3 -1 -7 -3q-5 -2 -7 -3l-4 -4q-5 -4 -7 -7q0 -1 -2 -4q-2 -6 -3 -11q-1 -6 -1 -1
l-169 -1373q-2 -16 8 -29t26 -15h1q16 -2 29 8t15 26l23 186q1 13 14 13h184q13 0 15 -13l23 -186q2 -16 15 -26q12 -10 29 -8v0q17 2 27 15t8 29z" />
    <glyph glyph-name="B" unicode="B" horiz-adv-x="487" 
d="M347 181q0 -43 -30 -74q-30 -30 -73 -30h-70q-37 0 -37 38v725q0 38 37 38h71q42 0 72 -30t30 -73v-594zM137 1329q0 36 37 37h75q41 0 70 -28q28 -28 28 -67v-224q0 -41 -30 -71q-30 -29 -73 -29h-70q-37 0 -37 37v345zM343 899l31 30q51 50 51 118v218q0 71 -53 121
t-128 50h-107v0h-41q-37 0 -37 -37v-1356q0 -36 37 -36h148q75 0 128 50t53 120v573q0 68 -51 118z" />
    <glyph glyph-name="C" unicode="C" horiz-adv-x="478" 
d="M114 1407q-54 -52 -54 -125v-1115q0 -73 54 -125q54 -51 129 -51q74 0 126 46q53 47 57 116q1 10 1 14v99q0 16 -12 27q-11 11 -28 11q-16 0 -28 -11q-11 -11 -11 -27v-112q0 -44 -33 -74q-32 -31 -76 -29q-42 2 -71 35q-29 32 -29 75v1125q0 68 57 93q56 25 105 -7
q47 -30 47 -85v-103q0 -16 11 -27q12 -12 28 -12q17 0 28 12q12 11 12 27v98q0 73 -54 125t-130 52q-75 0 -129 -52z" />
    <glyph glyph-name="D" unicode="D" horiz-adv-x="516" 
d="M372 177q0 -41 -31 -70q-30 -29 -74 -29h-82h-43v1277h43q62 1 82 1q44 0 74 -29q31 -29 31 -70v-1080zM142 1427v0h-20q-25 0 -43 -17t-18 -42v-1303q0 -24 18 -41t43 -17h145q77 0 132 50q55 49 55 120v1080q0 70 -55 120t-132 50h-125z" />
    <glyph glyph-name="E" unicode="E" horiz-adv-x="425" 
d="M335 806q30 0 30 29v1q0 30 -30 30h-159q-30 0 -30 29v430q0 29 30 29h159q30 0 30 30v19q0 30 -30 30h-237q-30 0 -30 -30v-1374q0 -29 30 -29h237q30 0 30 29v21q0 30 -30 30h-159q-30 0 -30 29v667q0 30 30 30h159z" />
    <glyph glyph-name="F" unicode="F" horiz-adv-x="445" 
d="M347 1352q30 0 30 30v19q0 30 -30 30h-236q-31 0 -31 -30v-1374q0 -30 31 -30h16q31 0 31 30v740q0 30 31 30h158q30 0 30 30v1q0 30 -30 30h-158q-31 0 -31 30v434q0 30 31 30h158z" />
    <glyph glyph-name="G" unicode="G" horiz-adv-x="480" 
d="M425 846q0 31 -32 31h-170q-32 0 -32 -31v0q0 -31 32 -31h91q32 0 32 -31v-609q0 -42 -31 -71q-30 -29 -74 -29q-43 0 -73 29q-31 30 -31 71v1094q0 41 31 70q30 30 73 30q44 0 74 -30q31 -29 31 -70v-59q0 -31 31 -31h16q32 0 32 31v59q0 71 -54 121q-54 51 -130 51
q-75 0 -129 -51q-54 -50 -54 -121v-1094q0 -71 54 -122q54 -50 129 -50q76 0 130 50q54 51 54 122v671z" />
    <glyph glyph-name="H" unicode="H" horiz-adv-x="526" 
d="M404 3q39 0 39 37v1353q0 38 -39 38h-1q-38 0 -38 -38v-482q0 -38 -39 -38h-144q-38 0 -38 38v482q0 38 -39 38v0q-39 0 -39 -38v-1353q0 -37 39 -37v0q39 0 39 37v735q0 38 38 38h144q39 0 39 -38v-735q0 -37 38 -37h1z" />
    <glyph glyph-name="I" unicode="I" horiz-adv-x="186" 
d="M94 1436q-16 0 -28 -12q-11 -11 -11 -27v-1355q0 -16 11 -27q12 -12 28 -12h1q16 0 28 12q11 11 11 27v1355q0 16 -11 27q-12 12 -28 12h-1z" />
    <glyph glyph-name="J" unicode="J" horiz-adv-x="328" 
d="M263 1400q0 36 -38 36h-6q-38 0 -38 -36v-1220q0 -43 -31 -73q-30 -30 -74 -30h-24q-38 0 -38 -36v-1q0 -37 37 -37h25q77 0 132 52t55 125v1220z" />
    <glyph glyph-name="K" unicode="K" horiz-adv-x="547" 
d="M423 1446q-26 0 -33 -25l-200 -522q-5 -13 -20 -11q-14 3 -14 17v506q0 35 -35 35h-8q-35 0 -35 -35v-1384q0 -35 35 -35h8q35 0 35 35v772l221 -769q13 -38 52 -38h1q19 0 30 15t4 33l-222 773q0 2 -1 6v5l216 577q6 17 -5 31q-10 14 -28 14h-1z" />
    <glyph glyph-name="L" unicode="L" horiz-adv-x="387" 
d="M92 1439q-39 0 -39 -38v-1366q0 -37 39 -37h220q38 0 38 37v5q0 38 -38 38h-143q-38 0 -38 38v1285q0 38 -39 38v0z" />
    <glyph glyph-name="M" unicode="M" horiz-adv-x="773" 
d="M623 1324q1 7 8 6q7 0 7 -7v-1280q0 -16 11 -27q12 -12 29 -12h1q35 0 35 34v1334q0 25 -19 43q-18 18 -43 18h-23q-51 0 -59 -50l-184 -1225h-2l-185 1230q-7 45 -53 45h-37q-22 0 -38 -15q-15 -15 -15 -37v-1341q0 -36 37 -36h2q37 0 37 37v1280q0 7 7 8q7 0 8 -7
l188 -1279q6 -39 46 -39h7q41 0 46 39z" />
    <glyph glyph-name="N" unicode="N" horiz-adv-x="585" 
d="M106 1433q-22 0 -37 -16q-16 -15 -16 -37v-1348q0 -35 36 -35h1q38 0 38 37v1345l262 -1337q9 -45 56 -45h1q32 0 55 22q22 22 22 53v1330q0 31 -31 31h-10q-36 0 -36 -35v-1310l-249 1293q-10 52 -63 52h-29z" />
    <glyph glyph-name="O" unicode="O" horiz-adv-x="515" 
d="M351 167q0 -42 -31 -71q-30 -30 -74 -30q-43 0 -73 30q-31 29 -31 71v1112q0 42 31 72q30 29 73 29q44 0 74 -29q31 -30 31 -72v-1112zM117 1404q-54 -52 -54 -125v-1112q0 -72 54 -124t129 -52q76 0 130 52t54 124v1112q0 73 -54 125q-54 51 -130 51q-75 0 -129 -51z
" />
    <glyph glyph-name="P" unicode="P" horiz-adv-x="503" 
d="M355 960q0 -48 -133 -135l-49 -32q-5 -4 -11 -1t-6 10v562l45 -2q144 -8 154 -96v-5v-301zM117 1433q-16 0 -28 -11q-11 -11 -11 -27v-1357q0 -15 11 -26q12 -11 28 -11v0q16 0 28 11q11 11 11 26v668l24 11q95 45 175 121q79 76 79 122v295v7q-17 108 -83 145
q-46 26 -152 26h-82z" />
    <glyph glyph-name="Q" unicode="Q" horiz-adv-x="509" 
d="M177 104q-31 30 -31 71v1107q0 42 31 71q30 30 73 30q44 0 74 -30q31 -29 31 -71v-1107q0 -41 -31 -71q-30 -29 -74 -29q-43 0 -73 29zM338 -23l-16 33l31 20q81 53 81 145v1107q0 73 -54 124t-130 51q-75 0 -129 -51t-54 -124v-1107q0 -71 51 -121q52 -51 126 -54l30 -1
l9 -27q32 -93 132 -99q6 -1 4 -1h17q29 0 29 27t-29 27q-63 -8 -98 51z" />
    <glyph glyph-name="R" unicode="R" horiz-adv-x="492" 
d="M160 790q-5 -4 -11 -1t-6 10v562l45 -2q144 -8 154 -96v-5v-301q0 -49 -133 -135zM331 825q90 82 90 132v295v7q-17 108 -83 145q-46 26 -152 26h-84q-37 0 -37 -37v-1359q0 -37 37 -37h4q37 0 37 37v668l24 12q11 5 27 14l7 3q17 9 34 1q18 -8 21 -27l118 -677
q6 -31 37 -31h1q17 0 28 13q12 13 9 31l-135 768z" />
    <glyph glyph-name="S" unicode="S" horiz-adv-x="538" 
d="M434 1150q12 12 12 27v99q0 73 -54 125t-130 52q-75 0 -129 -52t-54 -125v-380h1h1q7 -31 39 -31l247 -66v-638q0 -42 -29 -74t-71 -34q-44 -2 -77 28q-32 30 -32 73v339q0 16 -11 27q-12 11 -28 11q-17 0 -28 -11q-12 -11 -12 -27v-326q0 -5 1 -14q4 -68 57 -114
q52 -46 125 -46q76 0 130 51t54 123v672q0 16 -12 28q-12 11 -29 11l-247 65v337q0 68 57 93q56 25 105 -6q47 -31 47 -86v-104q0 -15 11 -27q12 -11 28 -11q17 0 28 11z" />
    <glyph glyph-name="T" unicode="T" horiz-adv-x="441" 
d="M206 5q39 0 39 38v1276q0 38 38 38h61q39 0 39 38v4q0 37 -39 37h-276q-39 0 -39 -37v-4q0 -16 11 -27q12 -11 28 -11h60q39 0 39 -38v-1276q0 -38 39 -38v0z" />
    <glyph glyph-name="U" unicode="U" horiz-adv-x="518" 
d="M76 173q0 -73 54 -125t129 -52q76 0 130 52t54 125v1236q0 16 -12 27q-11 12 -27 12h-1q-16 0 -28 -12q-11 -11 -11 -27v-1236q0 -42 -31 -72q-30 -30 -74 -30q-43 0 -73 30q-31 30 -31 72v1236q0 16 -11 27q-12 12 -28 12h-1q-16 0 -28 -12q-11 -11 -11 -27v-1236z" />
    <glyph glyph-name="V" unicode="V" horiz-adv-x="455" 
d="M266 28l170 1369q2 17 -8 29q-10 13 -27 15v0q-17 2 -29 -8q-13 -10 -15 -26l-130 -1049l-129 1049q-2 16 -15 26t-29 8h-1q-16 -2 -26 -15q-10 -12 -8 -29l169 -1369v-1q1 0 1 -1q1 -5 3 -10l2 -4q2 -4 7 -8q3 -2 4 -3q2 -2 7 -4q4 -2 7 -2q1 0 2 -1h1h1q-3 0 4 0
q8 0 5 0h1h1l1 1q3 0 8 2q4 2 7 4q1 1 4 3q4 4 6 8q1 0 2 4q3 5 4 10t0 2z" />
    <glyph glyph-name="W" unicode="W" horiz-adv-x="778" 
d="M734 1438q-17 2 -29 -8q-13 -10 -15 -26l-130 -1048l-129 1048q-5 34 -40 34v0h-1v0q2 0 -2 0t-1 0h-1v0h-1q-35 0 -39 -34l-130 -1048l-129 1048q-2 16 -15 26t-29 8h-1q-16 -2 -26 -15q-10 -12 -8 -29l169 -1366q0 3 1 -2q0 -5 3 -10l2 -4q2 -4 7 -8q2 -2 4 -3
q2 -2 7 -4q4 -2 7 -2q8 -2 3 -1h1q-3 0 4 0t5 0h1q-5 -1 2 1q3 0 8 2q4 2 7 4q1 1 4 3q4 4 6 8q1 0 2 4q3 5 4 10v1v1l133 1074l133 -1074q0 3 1 -2q0 -5 3 -10l2 -4q2 -4 7 -8q2 -2 4 -3q2 -2 7 -4q4 -2 7 -2q7 -2 3 -1h1q-3 0 4 0t5 0h1q-5 -1 2 1q3 0 8 2q4 2 7 4
q1 1 4 3q4 4 6 8q1 0 2 4q3 5 4 10t0 2l170 1366q2 17 -8 29q-10 13 -27 15v0z" />
    <glyph glyph-name="X" unicode="X" horiz-adv-x="468" 
d="M407 1428q-23 0 -29 -22l-151 -551q0 -2 -2 -2t-3 2l-150 551q-6 22 -29 22h-13q-15 0 -24 -11q-9 -12 -5 -27l186 -681v-1l-182 -667q-4 -15 5 -26q9 -12 24 -12h12q23 0 29 22l147 537q1 2 3 2t2 -2l147 -537q6 -22 29 -22h13q14 0 24 12q9 11 5 26l-183 667v1l186 681
q4 15 -5 27q-9 11 -24 11h-12z" />
    <glyph glyph-name="Y" unicode="Y" horiz-adv-x="461" 
d="M237 0q29 0 29 29l1 475v2q1 2 1 3l173 892q3 14 -6 24q-9 11 -23 11h-13q-25 0 -30 -24l-130 -744q-1 -10 -12 -10q-10 0 -12 10l-130 744q-4 24 -29 24h-13q-14 0 -23 -11q-9 -10 -6 -24l174 -900v-3t1 -3v-466q0 -29 29 -29h19z" />
    <glyph glyph-name="Z" unicode="Z" horiz-adv-x="474" 
d="M74 1436q-17 0 -29 -12q-11 -11 -11 -27v-1q0 -16 11 -28q12 -11 29 -11h244q19 0 31 -16q12 -15 7 -34l-336 -1258q-5 -19 7 -34t32 -15h340q17 0 28 11q12 12 12 28v1q0 16 -12 28q-11 11 -28 11h-244q-20 0 -32 15q-12 16 -7 34l336 1259q5 18 -7 34q-12 15 -31 15
h-340z" />
    <glyph glyph-name="bracketleft" unicode="[" horiz-adv-x="399" 
d="M185 1357q0 38 38 38h103q38 0 38 38v5q0 37 -38 37h-180q-39 0 -39 -37v-1459q0 -37 39 -37h180q38 0 38 37v5q0 38 -38 38h-103q-38 0 -38 38v1297z" />
    <glyph glyph-name="backslash" unicode="\" horiz-adv-x="473" 
d="M32 1463q-15 -5 -24 -21q-7 -14 -3 -31l354 -1401q5 -17 18 -25q15 -10 31 -5l1 1q15 5 24 21q7 14 3 31l-355 1402q-4 16 -18 24q-14 10 -30 5z" />
    <glyph glyph-name="bracketright" unicode="]" horiz-adv-x="399" 
d="M226 60q0 -38 -38 -38h-103q-38 0 -38 -38v-5q0 -37 38 -37h180q39 0 39 37v1459q0 37 -39 37h-180q-38 0 -38 -37v-5q0 -38 38 -38h103q38 0 38 -38v-1297z" />
    <glyph glyph-name="asciicircum" unicode="^" horiz-adv-x="1401" 
d="M837 1017q-25 0 -37 17l-151 228h-3l-151 -228q-11 -17 -36 -17h-1q-23 0 -35 16t0 33l173 244q11 17 35 17h34q24 0 36 -17l173 -244q12 -17 0 -33t-36 -16h-1z" />
    <glyph glyph-name="underscore" unicode="_" 
d="M988 -340q0 17 -12 29q-11 12 -30 12h-872q-19 0 -30 -12q-12 -12 -12 -29v-2q0 -17 12 -29q11 -12 30 -12h872q19 0 30 12q12 12 12 29v2z" />
    <glyph glyph-name="grave" unicode="`" 
d="M414 1214q8 7 20 9q14 2 22 -4l109 -136q1 -2 -1 -6q-3 -4 -8 -8v0q-5 -4 -11 -5q-4 -2 -6 0l-131 114q-8 7 -5 19q3 11 11 17v0z" />
    <glyph glyph-name="a" unicode="a" horiz-adv-x="459" 
d="M325 169q0 -38 -28 -64t-68 -26q-39 0 -68 26q-28 26 -28 64v405q0 37 28 64q29 26 68 26q40 0 68 -26q28 -27 28 -64v-405zM404 870q0 64 -45 113q-46 49 -114 55q-77 7 -134 -42q-57 -47 -57 -118v-61q0 -18 12 -31q11 -13 27 -13q17 0 28 13q12 13 12 31v61
q0 41 34 67q35 27 80 20q34 -6 57 -33q21 -26 21 -59v-177q-44 26 -96 26q-72 0 -124 -47q-51 -47 -51 -114v-397q0 -66 51 -114q52 -47 124 -47q52 0 96 27q1 -35 39 -35h1q16 0 28 10q11 11 11 26v839z" />
    <glyph glyph-name="b" unicode="b" horiz-adv-x="487" 
d="M151 861q0 39 28 68q29 28 68 28q40 0 68 -28q28 -29 28 -68v-691q0 -39 -28 -68q-28 -28 -68 -28q-39 0 -68 28q-28 29 -28 68v691zM72 25q0 -16 11 -28q12 -11 28 -11h1q38 0 39 38q44 -29 96 -29q73 0 124 51q51 52 51 124v691q0 72 -51 124q-51 51 -124 51
q-52 0 -96 -29v406q0 16 -11 28q-12 11 -28 11h-1q-16 0 -28 -11q-11 -12 -11 -28v-1388z" />
    <glyph glyph-name="c" unicode="c" horiz-adv-x="469" 
d="M113 980q-45 -53 -45 -120v-696q0 -68 45 -120q46 -53 114 -59q78 -7 135 45q56 50 56 126v101q0 16 -11 27q-12 11 -28 11h-1q-16 0 -27 -11q-12 -11 -12 -27v-97q0 -35 -21 -62q-23 -29 -57 -35q-45 -7 -80 21q-34 28 -34 72v708q0 35 22 62q22 28 56 34q46 8 80 -20
q34 -29 34 -72v-102q0 -15 12 -26q11 -12 27 -12h1q16 0 28 12q11 11 11 26v102q0 76 -56 126q-57 52 -135 45q-68 -7 -114 -59z" />
    <glyph glyph-name="d" unicode="d" horiz-adv-x="500" 
d="M336 170q0 -39 -28 -68q-28 -28 -68 -28q-39 0 -68 28q-28 29 -28 68v691q0 39 28 68q29 28 68 28q40 0 68 -28q28 -29 28 -68v-691zM375 1412q-16 0 -27 -11q-12 -12 -12 -28v-366q-44 29 -96 29q-72 0 -124 -51q-51 -52 -51 -124v-691q0 -72 51 -124q52 -51 124 -51
q52 0 96 29q1 -38 39 -38h1q16 0 28 11q11 12 11 28v1348q0 16 -11 28q-12 11 -28 11h-1z" />
    <glyph glyph-name="e" unicode="e" horiz-adv-x="449" 
d="M128 864q0 35 22 62q22 28 56 34q46 8 80 -20t34 -71v-251l-192 -70v316zM94 979q-45 -51 -45 -119v-687q0 -69 45 -120q46 -52 114 -58q78 -7 135 44q56 51 56 125v100q0 16 -11 27q-12 11 -28 11h-1q-16 0 -27 -11q-12 -11 -12 -27v-95q0 -35 -21 -63q-23 -28 -57 -34
q-45 -7 -80 21q-34 28 -34 71v307l231 70v0h1q16 0 28 11q11 11 11 26v291q0 74 -56 125q-57 50 -135 44q-68 -7 -114 -59z" />
    <glyph glyph-name="f" unicode="f" horiz-adv-x="345" 
d="M209 1338q0 72 70 92q25 7 25 31v16q0 16 -12 25q-13 10 -28 6q-58 -14 -96 -61q-38 -48 -38 -109v-189q0 -32 -32 -32h-17q-32 0 -32 -32v-1q0 -32 32 -32h17q32 0 32 -32v-996q0 -32 32 -32h15q32 0 32 32v996q0 32 32 32h64q32 0 32 32v1q0 32 -32 32h-64
q-32 0 -32 32v189z" />
    <glyph glyph-name="g" unicode="g" horiz-adv-x="454" 
d="M320 167q0 -35 -21 -62q-23 -28 -57 -34q-45 -8 -80 21q-34 27 -34 71v704q0 34 22 63q22 28 56 34q46 7 80 -21t34 -72v-704zM359 1050q-36 0 -38 -37q-52 33 -113 28q-68 -6 -114 -58q-45 -52 -45 -120v-692q0 -68 45 -119q46 -53 114 -59q61 -5 112 28v-139
q0 -43 -34 -71q-35 -28 -80 -20q-34 5 -56 34q-22 28 -22 63v32q0 35 -40 38q-16 0 -28 -12q-11 -11 -11 -26v-38q0 -74 57 -125t134 -44q68 6 114 58q45 52 45 121v1119q0 17 -11 27q-12 12 -28 12h-1z" />
    <glyph glyph-name="h" unicode="h" horiz-adv-x="481" 
d="M174 994q-18 -5 -21 12q-1 2 -1 25v361q0 17 -11 28q-12 12 -28 12h-1q-15 0 -28 -10q-11 -9 -11 -18v-1354q0 -52 39 -52h1q16 0 28 12q11 11 11 28l1 799q0 35 23 67t58 45q43 16 59 17q52 2 52 -56v-872q0 -17 11 -28q12 -12 28 -12h1q16 0 27 12q12 11 12 28v899
q0 89 -99 107q-67 11 -151 -50z" />
    <glyph glyph-name="i" unicode="i" horiz-adv-x="161" 
d="M44 1225q0 -17 11 -28q12 -12 28 -12h1q16 0 28 12q11 11 11 28v47q0 16 -11 28q-12 11 -28 11h-1q-16 0 -28 -11q-11 -12 -11 -28v-47zM84 -2q16 0 28 12q11 11 11 29v947q0 18 -11 29q-12 12 -28 12h-1q-16 0 -28 -12q-11 -11 -11 -29v-947q0 -18 11 -29q12 -12 28 -12
h1z" />
    <glyph glyph-name="j" unicode="j" horiz-adv-x="224" 
d="M79 -60q0 -74 -69 -94q-26 -8 -26 -37v-1q0 -20 15 -32q16 -13 34 -7q55 16 90 63q35 48 35 108v1057q0 18 -11 29q-12 12 -28 12h-1q-16 0 -27 -12q-12 -11 -12 -29v-1057zM79 1225q0 -17 12 -28q11 -12 27 -12h1q16 0 28 12q11 11 11 28v47q0 16 -11 28q-12 11 -28 11
h-1q-16 0 -27 -11q-12 -12 -12 -28v-47z" />
    <glyph glyph-name="k" unicode="k" horiz-adv-x="492" 
d="M337 1158q-25 0 -32 -24l-12 -37q0 -2 -1 -3l-132 -340q-3 -7 -10 -5q-7 1 -7 8v649q0 34 -34 34h-10q-34 0 -34 -34v-1372q0 -35 34 -35h10q34 0 34 35v618l40 -102l44 -121l142 -407q8 -23 32 -23h19q17 0 28 15q10 14 4 31l-221 635q-4 11 0 22l139 411q6 16 -4 30
q-10 15 -28 15h-1z" />
    <glyph glyph-name="l" unicode="l" horiz-adv-x="247" 
d="M95 1373q-38 0 -38 -39v-1208q0 -67 44 -116q17 -20 42 -10q24 10 24 36v6q0 12 -9 23q-22 27 -22 61v1208q0 39 -38 39h-3z" />
    <glyph glyph-name="m" unicode="m" horiz-adv-x="744" 
d="M363 967q-49 62 -127 61q-46 0 -114 -53v30q0 16 -11 28q-12 11 -28 11h-1q-16 0 -28 -11q-11 -12 -11 -28v-967q0 -16 11 -28q12 -11 28 -11h1q16 0 28 11q11 12 11 28v810q0 13 5 23q37 78 100 75q40 -1 68 -29t28 -67v-813q0 -16 12 -28q11 -11 27 -11h1q16 0 28 11
q11 12 11 28v761h1v56q0 40 28 68t68 28q39 0 67 -28q29 -28 29 -68v-817q0 -16 11 -27q12 -12 28 -12h1q16 0 27 12q12 11 12 27v817q0 73 -52 126q-51 52 -123 52q-83 0 -136 -65z" />
    <glyph glyph-name="n" unicode="n" horiz-adv-x="459" 
d="M132 978v30q0 16 -11 28q-12 11 -28 11h-1q-16 0 -28 -11q-11 -12 -11 -28v-969q0 -16 11 -28q12 -11 28 -11h1q16 0 28 11q11 12 11 28v811q0 13 5 23q37 78 100 76q40 -2 68 -29q28 -28 28 -68v-817q0 -16 12 -28q11 -11 27 -11h1q16 0 28 11q11 12 11 28v817
q0 75 -47 127q-48 53 -119 52q-46 0 -114 -53z" />
    <glyph glyph-name="o" unicode="o" horiz-adv-x="466" 
d="M320 174q0 -38 -28 -65t-68 -27q-39 0 -68 27q-28 27 -28 65v702q0 38 28 65q29 27 68 27q40 0 68 -27t28 -65v-702zM100 996q-51 -50 -51 -120v-702q0 -70 51 -120q52 -50 124 -50q73 0 124 50t51 120v702q0 70 -51 120q-51 49 -124 49q-72 0 -124 -49z" />
    <glyph glyph-name="p" unicode="p" horiz-adv-x="449" 
d="M135 865q0 38 28 66q29 27 68 27q40 0 68 -27q28 -28 28 -66v-705q0 -38 -28 -65q-28 -28 -68 -28q-39 0 -68 28q-28 27 -28 65v705zM96 -372q16 0 28 11q11 11 11 27v353q44 -28 96 -28q73 0 124 49q51 50 51 120v705q0 70 -51 120q-51 49 -124 49q-52 0 -96 -28
q-1 37 -39 37h-1q-16 0 -28 -11q-11 -11 -11 -27v-1339q0 -16 11 -27q12 -11 28 -11h1z" />
    <glyph glyph-name="q" unicode="q" horiz-adv-x="449" 
d="M327 158q0 -38 -28 -65t-68 -27q-39 0 -68 27q-28 27 -28 65v702q0 38 28 65q29 27 68 27q40 0 68 -27t28 -65v-702zM367 -372q16 0 28 11q11 11 11 27v1333q0 16 -11 27q-12 11 -28 11h-1q-38 0 -39 -37q-44 28 -96 28q-72 0 -124 -49q-51 -49 -51 -119v-702
q0 -70 51 -119q52 -50 124 -50q52 0 96 28v-351q0 -16 12 -27q11 -11 27 -11h1z" />
    <glyph glyph-name="r" unicode="r" horiz-adv-x="375" 
d="M339 1001q0 16 -16 22q-28 11 -59 11q-46 -1 -114 -53v30q0 16 -11 28q-12 11 -28 11h-1q-16 0 -28 -11q-11 -12 -11 -28v-969q0 -16 11 -28q12 -11 28 -11h1q16 0 28 11q11 12 11 28v805q0 20 9 37q36 70 96 68q27 -1 49 -15q12 -7 23 0q12 7 12 21v43z" />
    <glyph glyph-name="s" unicode="s" horiz-adv-x="416" 
d="M336 761q16 0 28 10q11 11 11 26v73q0 71 -51 120q-51 50 -124 50q-72 0 -124 -50q-51 -49 -51 -120l1 -182q0 -21 19 -33l232 -135q19 -11 19 -31v-324q0 -38 -28 -65t-68 -27q-39 0 -68 27q-28 27 -28 65v122q0 16 -11 26q-12 12 -28 12h-1q-16 0 -28 -12
q-11 -10 -11 -26v-122q0 -71 51 -120q52 -50 124 -50q73 0 124 50q51 49 51 120v357q0 22 -19 32l-232 128q-20 11 -20 32v156q0 38 28 65q29 27 68 27q40 0 68 -27t28 -65v-73q0 -15 12 -26q11 -10 27 -10h1z" />
    <glyph glyph-name="t" unicode="t" horiz-adv-x="279" 
d="M119 1370q-35 0 -35 -35v-242h-19q-32 0 -32 -32v-1q0 -32 32 -32h19v-905q0 -66 44 -116q17 -19 42 -10q25 10 25 36v7q0 12 -9 22q-22 27 -22 61v905h59q32 0 32 32v1q0 32 -32 32h-59v234q0 18 -13 30q-13 13 -31 13h-1z" />
    <glyph glyph-name="u" unicode="u" horiz-adv-x="460" 
d="M46 173q0 -73 54 -125t129 -52q76 0 130 52t54 125v816q0 16 -12 27q-11 12 -27 12h-1q-16 0 -28 -12q-11 -11 -11 -27v-816q0 -42 -31 -72q-30 -30 -74 -30q-43 0 -73 30q-31 30 -31 72v816q0 16 -11 27q-12 12 -28 12h-1q-16 0 -28 -12q-11 -11 -11 -27v-816z" />
    <glyph glyph-name="v" unicode="v" horiz-adv-x="405" 
d="M72 1023q-16 0 -27 -12t-10 -27l84 -941q2 -26 23 -45q20 -18 48 -18h34q30 0 53 20q22 20 25 50l83 934q1 15 -10 27t-27 12h-1q-34 0 -37 -33l-97 -945q0 -3 -3 -3t-3 3l-97 945q-3 33 -37 33h-1z" />
    <glyph glyph-name="w" unicode="w" horiz-adv-x="711" 
d="M629 1034q-34 0 -37 -33l-98 -971q0 -2 -2 -2t-2 2l-97 962v2q2 27 -24 37q1 0 -6 1l-7 2h-2l-7 -2l-6 -1q-26 -10 -24 -37v-2l-97 -962q0 -2 -2 -2t-2 2l-98 971q-3 33 -37 33h-1q-16 0 -27 -12t-10 -28l84 -955q2 -27 23 -46q20 -18 48 -18h34q30 0 53 20q22 21 25 51
l43 630h4l44 -637q2 -27 23 -46q20 -18 48 -18h33q31 0 53 20q23 21 25 51l84 948q1 16 -10 28t-27 12h-1z" />
    <glyph glyph-name="x" unicode="x" horiz-adv-x="405" 
d="M195 624q-1 -7 -8 -7t-8 7l-81 382q-6 28 -36 28h-1q-17 0 -28 -13q-11 -14 -7 -31l120 -467q2 -9 0 -17l-120 -468q-4 -17 7 -30q11 -14 28 -14h2q29 0 35 28l88 387q1 5 2 0l88 -387q6 -28 35 -28h1q18 0 29 14q11 13 6 30l-120 468q-2 8 0 17l120 467q5 17 -6 31
q-11 13 -29 13h-1q-29 0 -35 -28z" />
    <glyph glyph-name="y" unicode="y" horiz-adv-x="416" 
d="M70 1036q-17 0 -28 -13t-9 -29l137 -1104q0 -76 -70 -96q-25 -7 -25 -36v-4q0 -18 14 -29q15 -12 32 -7q56 16 92 62q36 47 36 107l129 1107q2 17 -9 29q-12 13 -28 13h-1q-34 0 -37 -34l-81 -870q-1 -6 -7 -6t-6 6l-101 870q-4 34 -37 34h-1z" />
    <glyph glyph-name="z" unicode="z" horiz-adv-x="437" 
d="M65 989q0 -15 11 -26q12 -11 28 -11h148q20 0 32 -14q11 -15 6 -33l-272 -864q-6 -18 6 -33q12 -14 31 -14h208q16 0 28 10q11 11 11 26v1q0 15 -11 26q-12 11 -28 11h-112q-19 0 -31 15q-12 14 -6 32l272 865q6 17 -6 32t-31 15h-245q-16 0 -28 -11q-11 -11 -11 -26v-1z
" />
    <glyph glyph-name="braceleft" unicode="{" horiz-adv-x="454" 
d="M254 -107q-36 159 24 625q-1 20 -8 45q-14 53 -46 78q-5 3 -11 8l11 8q32 25 46 78q7 25 8 44q-60 467 -24 626q8 23 80 49q15 6 22 21t2 30q-6 16 -21 23t-30 1q-113 -40 -130 -104q-44 -162 21 -649q-6 -42 -23 -55q-25 -20 -53 -33q-19 -6 -27 -23q-3 -7 -3 -16t3 -17
q8 -17 27 -22q28 -14 53 -33q17 -13 23 -56q-9 -68 -19 -337q-11 -280 -2 -312q17 -63 130 -104q15 -5 30 2t21 22q5 16 -2 31t-22 20q-72 26 -80 50z" />
    <glyph glyph-name="bar" unicode="|" 
d="M424 1565h83v-1751h-83v1751z" />
    <glyph glyph-name="braceright" unicode="}" horiz-adv-x="465" 
d="M119 -157q-16 -5 -23 -20t-1 -31q5 -15 20 -22t31 -2q113 41 130 104q8 32 -3 312q-10 269 -19 337q6 43 23 56q25 19 53 33q20 5 27 22q3 8 3 17t-3 16q-7 17 -27 23q-28 13 -53 33q-17 13 -23 55q65 487 22 649q-17 64 -130 104q-16 6 -31 -1t-20 -23q-6 -15 1 -30
t23 -21q71 -26 79 -49q36 -159 -24 -626q1 -19 8 -44q14 -53 46 -78q4 -3 12 -8q-7 -5 -12 -8q-32 -25 -46 -78q-7 -25 -8 -45q60 -466 24 -625q-8 -24 -79 -50z" />
    <glyph glyph-name="asciitilde" unicode="~" horiz-adv-x="1336" 
d="M783 694q-248 120 -289 122q-26 -2 -71 -79q-24 -40 -59 -12q-34 28 -10 68q72 121 140 121q56 0 314 -127q45 -6 63 10q38 34 52 59q25 38 58 8q33 -31 7 -69q-25 -39 -67 -76q-33 -31 -91 -31q-26 0 -47 6z" />
    <glyph glyph-name="exclamdown" unicode="&#xa1;" horiz-adv-x="223" 
d="M152 917q0 -16 -12 -28q-11 -11 -27 -11h-1q-16 0 -28 11q-11 12 -11 28v67q0 17 11 28q12 12 28 12h1q16 0 27 -12q12 -11 12 -28v-67zM112 -422q-19 0 -35 24q-19 30 -19 76l15 979q0 22 11 36q12 15 28 15h1q16 0 27 -15q12 -14 12 -36l20 -988q-3 -41 -23 -68
q-18 -23 -36 -23h-1z" />
    <glyph glyph-name="cent" unicode="&#xa2;" horiz-adv-x="464" 
d="M124 995q-45 -53 -45 -120v-696q0 -68 45 -120q46 -53 114 -59q78 -7 135 45q56 50 56 126v101q0 16 -11 27q-12 11 -28 11h-1q-16 0 -27 -11q-12 -11 -12 -27v-97q0 -35 -21 -62q-23 -29 -57 -35q-45 -7 -80 21q-34 28 -34 72v708q0 35 22 62q22 28 56 34q46 8 80 -20
q34 -29 34 -72v-102q0 -15 12 -26q11 -12 27 -12h1q16 0 28 12q11 11 11 26v102q0 76 -56 126q-57 52 -135 45q-68 -7 -114 -59zM436 1331q-16 5 -30 -5q-14 -8 -18 -24l-354 -1402q-5 -17 2 -31q9 -16 24 -21l1 -1q16 -5 31 5q13 8 18 25l355 1401q3 17 -4 31q-9 16 -24 21
z" />
    <glyph glyph-name="sterling" unicode="&#xa3;" horiz-adv-x="778" 
d="M117 62q-3 -21 11 -38q15 -16 36 -16h498q17 0 29 12q11 12 11 28v3q0 16 -11 28q-12 12 -29 12h-412q-43 0 -39 30q118 421 133 528h136q42 0 42 33v1q0 32 -42 32h-135q-7 131 -62 536q0 40 28 68q28 29 68 29q30 0 87 -23q21 -8 39 5q19 12 19 35q0 32 -30 41
q-78 24 -115 24q-73 0 -124 -53q-52 -52 -52 -126l63 -536h-141q-42 0 -42 -32v-1q0 -33 42 -33h139q-21 -90 -147 -587z" />
    <glyph glyph-name="currency" unicode="&#xa4;" horiz-adv-x="1014" 
d="M350 560q41 -40 99 -57q29 -8 58 -8t58 8q58 17 99 57q40 41 57 99q9 29 9 58t-9 58q-17 58 -57 99q-41 40 -100 57q-29 8 -58 8t-58 -9q-58 -17 -98 -56q-39 -40 -56 -98q-10 -30 -10 -60q0 -28 9 -56q16 -59 57 -100zM240 903l-118 118l80 81l118 -118q44 30 99 46
q44 14 89 14q41 0 83 -12q57 -17 102 -48l118 118l80 -81l-117 -117q31 -46 48 -102q12 -42 12 -85q0 -42 -12 -85q-17 -56 -48 -102l117 -117l-80 -81l-118 118q-45 -32 -101 -48q-42 -12 -85 -12q-42 0 -85 12q-57 16 -102 48l-118 -118l-80 81l118 117q-32 46 -48 103
q-12 42 -12 84q0 44 13 87q16 55 47 99z" />
    <glyph glyph-name="yen" unicode="&#xa5;" horiz-adv-x="611" 
d="M162 538q-25 0 -25 -29v-1q0 -28 25 -28h114v-67h-114q-25 0 -25 -28v-1q0 -29 25 -29h114v-354q0 -30 30 -30h18q30 0 30 30v354h113q26 0 26 29v1q0 28 -26 28h-113v67h113q26 0 26 28v1q0 29 -26 29h-103l165 864q2 14 -7 24q-9 11 -23 11h-13q-25 0 -29 -25
l-130 -759q-2 -10 -12 -10q-11 0 -12 10l-130 759q-5 25 -30 25h-13q-14 0 -23 -11q-9 -10 -6 -24l163 -864h-102z" />
    <glyph glyph-name="brokenbar" unicode="&#xa6;" horiz-adv-x="1014" 
d="M427 371h160v-789h-160v789zM427 1578h160v-789h-160v789z" />
    <glyph glyph-name="section" unicode="&#xa7;" horiz-adv-x="1014" 
d="M387 848q0 40 28 69q29 28 68 28q58 0 85 -53v-285q0 -24 -11 -45l-150 88q-20 11 -20 34v164zM626 522q21 41 21 85v377q0 23 -19 34l-232 135q-20 12 -20 34v164q0 41 28 69q29 28 68 28q40 0 68 -28t28 -69v-76q0 -16 12 -28q11 -11 27 -11h1q16 0 28 11q11 12 11 28
v76q0 75 -51 127q-51 53 -124 53q-72 0 -124 -53q-51 -52 -51 -127l1 -193q0 -21 19 -33l159 -98q-70 -3 -119 -55t-49 -124l1 -193q0 -22 19 -33l232 -144q19 -11 19 -33v-341q0 -40 -28 -69q-28 -28 -68 -28q-39 0 -68 28q-28 29 -28 69v129q0 16 -11 28q-12 11 -28 11h-1
q-16 0 -28 -11q-11 -12 -11 -28v-129q0 -74 51 -127q52 -53 124 -53q73 0 124 53t51 127v377q0 22 -19 34z" />
    <glyph glyph-name="dieresis" unicode="&#xa8;" 
d="M392 1083q0 -13 11 -23q12 -9 28 -9h1q16 0 28 9q11 10 11 23v93q0 13 -11 22q-12 10 -28 10h-1q-16 0 -28 -10q-11 -9 -11 -22v-93zM519 1083q0 -13 12 -23q11 -9 27 -9h1q16 0 28 9q11 10 11 23v93q0 13 -11 22q-12 10 -28 10h-1q-16 0 -27 -10q-12 -9 -12 -22v-93z
" />
    <glyph glyph-name="copyright" unicode="&#xa9;" horiz-adv-x="813" 
d="M300 1139q-43 -44 -43 -107v-627q0 -62 43 -106t105 -44q61 0 105 44q43 44 43 106v37q0 13 -10 23q-9 9 -23 9h-1q-13 0 -23 -9q-10 -10 -10 -23v-37q0 -34 -24 -58t-57 -24q-34 0 -58 24q-23 24 -23 58v627q0 34 23 59q24 24 58 24q33 0 57 -24q24 -25 24 -59v-25
q0 -14 10 -23q10 -10 23 -10h1q14 0 23 10q10 9 10 23v25q0 63 -43 107q-44 44 -105 44q-62 0 -105 -44zM206 1303q-82 -73 -82 -175v-818q0 -102 82 -175q83 -73 199 -73t198 73q83 73 83 175v818q0 102 -83 175q-82 73 -198 73t-199 -73zM162 92q-101 90 -101 218v818
q0 127 101 218q101 90 243 90t243 -90q101 -91 101 -218v-818q0 -128 -101 -218t-243 -90t-243 90z" />
    <glyph glyph-name="ordfeminine" unicode="&#xaa;" horiz-adv-x="587" 
d="M356.491 912.396q0 -22.7988 -18.4795 -38.3984q-18.4785 -15.5986 -44.8779 -15.5986q-25.7393 0 -44.8779 15.5986q-18.4795 15.5996 -18.4795 38.3984v242.99q0 22.1992 18.4795 38.3984q19.1387 15.5996 44.8779 15.5996q26.3994 0 44.8779 -15.5996
q18.4795 -16.1992 18.4795 -38.3984v-242.99zM408.629 1332.98q0 38.3984 -29.6982 67.7979q-30.3594 29.3984 -75.2373 32.998q-50.8184 4.2002 -88.4365 -25.1982q-37.6182 -28.1992 -37.6182 -70.7979v-36.5986q0 -10.7988 7.91992 -18.5986
q7.25977 -7.7998 17.8193 -7.7998q11.2188 0 18.4785 7.7998q7.91992 7.7998 7.91992 18.5986v36.5986q0 24.5996 22.4395 40.1982q23.0986 16.1992 52.7979 12q22.4385 -3.59961 37.6182 -19.7988q13.8594 -15.5996 13.8594 -35.3994v-106.195
q-29.0391 15.5996 -63.3574 15.5996q-47.5176 0 -81.8369 -28.1992q-33.6582 -28.1982 -33.6582 -68.3975v-238.189q0 -39.5986 33.6582 -68.3975q34.3193 -28.1992 81.8369 -28.1992q34.3184 0 63.3574 16.1992q0.660156 -20.999 25.7393 -20.999h0.660156
q10.5596 0 18.4785 6q7.25977 6.59961 7.25977 15.5996v503.379zM532 683q0 17 -6 29q-5.5 12 -15 12h-436q-9.5 0 -15 -12q-6 -12 -6 -29v-2q0 -17 6 -29q5.5 -12 15 -12h436q9.5 0 15 12q6 12 6 29v2z" />
    <glyph glyph-name="guillemotleft" unicode="&#xab;" horiz-adv-x="944" 
d="M174 479l342 303h14v-37l-205 -266l205 -266v-37h-14zM487 479l342 303h14v-37l-205 -266l205 -266v-37h-14z" />
    <glyph glyph-name="logicalnot" unicode="&#xac;" horiz-adv-x="1014" 
d="M87 767h840v-491l-1 -1h-98v392h-741v100z" />
    <glyph glyph-name="registered" unicode="&#xae;" horiz-adv-x="758" 
d="M191 1300q-75 -72 -75 -173v-806q0 -101 75 -173q76 -72 182 -72q107 0 183 72q75 72 75 173v806q0 101 -75 173q-76 71 -183 71q-106 0 -182 -71zM150 106q-92 89 -92 215v806q0 126 92 215q93 89 223 89q131 0 223 -89q93 -89 93 -215v-806q0 -126 -93 -215
q-92 -89 -223 -89q-130 0 -223 89zM319 783v398l29 -2q93 -5 99 -65v-209q0 -33 -85 -92zM429 805l11 10q58 56 58 90v204q-10 75 -53 101q-30 18 -98 18h-48q-13 0 -21 -9q-9 -9 -9 -22v-951q0 -26 25 -26t25 26v486l16 8q7 3 17 9l34 19l86 -517v0q5 -25 29 -21
q24 5 19 31z" />
    <glyph glyph-name="macron" unicode="&#xaf;" horiz-adv-x="543" 
d="M81 1285v79h370v-79h-370z" />
    <glyph glyph-name="degree" unicode="&#xb0;" horiz-adv-x="674" 
d="M438 971q0 -37 -22 -64q-23 -27 -55 -27q-31 0 -54 27t-23 64v173q0 38 23 64q23 27 54 27q32 0 55 -27q22 -26 22 -64v-173zM247 1263q-47 -49 -47 -119v-173q0 -69 47 -119q48 -50 114 -50q67 0 114 50q48 50 48 119v173q0 70 -48 119q-47 50 -114 50q-66 0 -114 -50z
" />
    <glyph glyph-name="plusminus" unicode="&#xb1;" horiz-adv-x="813" 
d="M424 540v189q0 33 -33 33v0q-33 0 -33 -33v-189h-189q-33 0 -33 -33v0q0 -33 33 -33h189v-189q0 -33 33 -33v0q33 0 33 33v189h189q33 0 33 33v0q0 33 -33 33h-189zM677 39q0 23 -11 39q-9 15 -24 15h-517q-15 0 -24 -15q-11 -16 -11 -39v0q0 -23 11 -39q9 -15 24 -15
h517q15 0 24 15q11 16 11 39v0z" />
    <glyph glyph-name="uni00B2" unicode="&#xb2;" horiz-adv-x="450" 
d="M405 907q9 11 10 25v317q0 77 -51 131t-124 54q-72 0 -124 -54q-51 -54 -51 -131v-80q0 -16 11 -28q12 -11 28 -11h1q16 0 28 11q11 12 11 28v80q0 42 28 71q29 29 68 29q40 0 68 -29t28 -71v-287q0 -15 -10 -27l-251 -176q-10 -11 -10 -27v-732h8v-5h267q16 0 27 12
q12 11 12 27v4q0 16 -12 27q-11 12 -27 12h-157q-16 0 -27 11q-12 12 -12 28v579q0 15 10 26z" />
    <glyph glyph-name="uni00B3" unicode="&#xb3;" horiz-adv-x="469" 
d="M397 828q8 9 8 19v416q0 75 -51 128t-124 53q-72 0 -124 -53q-51 -53 -51 -128v-81q0 -36 36 -36h7q36 0 36 36v81q0 40 28 69q29 29 68 29q40 0 68 -29t28 -69v-387q0 -11 -7 -20l-159 -82q-13 -13 -6 -31q8 -17 27 -17h100q19 0 29 -16q16 -24 16 -52v-477
q0 -40 -28 -68t-68 -28q-39 0 -68 28q-28 28 -28 68v57q0 16 -11 27q-12 12 -28 12q-17 0 -28 -12q-12 -11 -12 -27v-23q1 -48 2 -50q6 -68 56 -114q49 -46 117 -46q73 0 124 52q51 51 51 124v477q0 68 -40 105q-32 30 -37 25z" />
    <glyph glyph-name="acute" unicode="&#xb4;" 
d="M553 1214q8 -6 11 -17q3 -12 -5 -19l-130 -114q-3 -2 -7 0q-5 1 -11 5v0q-5 4 -8 8q-2 4 -1 6l109 136q8 6 22 4q12 -2 20 -9v0z" />
    <glyph glyph-name="mu" unicode="&#xb5;" horiz-adv-x="566" 
d="M430 1092q-16 0 -28 -11q-11 -12 -11 -28v-858q0 -43 -31 -73q-30 -30 -74 -30q-43 0 -73 30q-31 30 -31 73v858q0 16 -11 28q-12 11 -28 11h-1q-16 0 -28 -11q-11 -12 -11 -28v-1368q0 -16 11 -28q12 -11 28 -11h1q16 0 28 11q11 12 11 28v362q47 -32 104 -32
q58 0 105 32v-24q0 -16 11 -28q12 -11 28 -11h1q16 0 27 11q12 12 12 28v1030q0 16 -12 28q-11 11 -27 11h-1z" />
    <glyph glyph-name="paragraph" unicode="&#xb6;" 
d="M929 1435v-70h-127v-1365h-82v1365h-166v-1365h-84v738q-174 8 -275.5 102.5t-101.5 245.5q0 157 107.5 253t285.5 96h443z" />
    <glyph glyph-name="periodcentered" unicode="&#xb7;" horiz-adv-x="508" 
d="M145 740l82 84q15 14 29 14q13 0 31 -16l80 -86q12 -16 12 -29q0 -15 -14 -31l-80 -88q-20 -20 -29 -20q-16 0 -29 14l-88 101q-10 13 -10 26q0 15 16 31z" />
    <glyph glyph-name="periodcentered" unicode="&#x2219;" horiz-adv-x="508" 
d="M145 740l82 84q15 14 29 14q13 0 31 -16l80 -86q12 -16 12 -29q0 -15 -14 -31l-80 -88q-20 -20 -29 -20q-16 0 -29 14l-88 101q-10 13 -10 26q0 15 16 31z" />
    <glyph glyph-name="cedilla" unicode="&#xb8;" 
d="M549 -56q9 24 -12 31v1q-21 7 -29 -17l-24 -70q0 1 -1 -3q-1 -3 0 -1l-1 -1q-7 -18 14 -27l17 -6q23 -9 33 -30q10 -20 2 -41q-8 -20 -29 -28q-22 -9 -44 0l-18 7q-20 8 -28 -11v0q-7 -19 14 -27l17 -6q39 -16 77 -1q38 14 52 50q13 36 -4 72q-17 35 -55 51z" />
    <glyph glyph-name="uni00B9" unicode="&#xb9;" horiz-adv-x="246" 
d="M125 1435q-26 0 -26 -26v-25q0 -95 -81 -148q0 -3 0 -2v-41q0 -15 14 -23q13 -8 26 1q0 -1 1 0q13 8 26 1q14 -8 14 -23v-1126q0 -26 26 -26h27q26 0 26 26v1386q0 26 -26 26h-27z" />
    <glyph glyph-name="ordmasculine" unicode="&#xba;" horiz-adv-x="594" 
d="M351.191 911.396q0 -22.7988 -18.4795 -38.998t-44.8779 -16.1992q-25.7393 0 -44.8779 16.1992q-18.4795 16.1992 -18.4795 38.998v421.183q0 22.7998 18.4795 38.999q19.1387 16.1992 44.8779 16.1992q26.3984 0 44.8779 -16.1992t18.4795 -38.999v-421.183z
M205.997 1404.58q-33.6582 -29.999 -33.6582 -71.998v-421.183q0 -41.998 33.6582 -71.9971q34.3193 -29.998 81.8369 -29.998q48.1777 0 81.8369 29.998q33.6582 29.999 33.6582 71.9971v421.183q0 41.999 -33.6582 71.998q-33.6592 29.3984 -81.8369 29.3984
q-47.5176 0 -81.8369 -29.3984zM527 684q0 17 -6 29q-5.5 12 -15 12h-436q-9.5 0 -15 -12q-6 -12 -6 -29v-2q0 -17 6 -29q5.5 -12 15 -12h436q9.5 0 15 12q6 12 6 29v2z" />
    <glyph glyph-name="guillemotright" unicode="&#xbb;" horiz-adv-x="944" 
d="M115 176h-14v37l205 266l-205 266v37h14l342 -303zM428 176h-14v37l205 266l-205 266v37h14l342 -303z" />
    <glyph glyph-name="onequarter" unicode="&#xbc;" horiz-adv-x="1265" 
d="M125 1435q-26 0 -26 -26v-25q0 -95 -81 -148q0 -3 0 -2v-41q0 -15 14 -23q13 -8 26 1q0 -1 1 0q13 8 26 1q14 -8 14 -23v-1126q0 -26 26 -26h27q26 0 26 26v1386q0 26 -26 26h-27zM872 1506q-15 6 -31 0q-14 -6 -21 -22l-654 -1595q-7 -16 -1 -30q7 -15 22 -21l1 -1
q14 -6 30 0q14 6 21 22l655 1595q6 16 0 30q-7 15 -22 21v1zM1220 912q9 11 10 25v317q0 77 -51 131t-124 54q-72 0 -124 -54q-51 -54 -51 -131v-80q0 -16 11 -28q12 -11 28 -11h1q16 0 28 11q11 12 11 28v80q0 42 28 71q29 29 68 29q40 0 68 -29t28 -71v-287q0 -15 -10 -27
l-251 -176q-10 -11 -10 -27v-732h8v-5h267q16 0 27 12q12 11 12 27v4q0 16 -12 27q-11 12 -27 12h-157q-16 0 -27 11q-12 12 -12 28v579q0 15 10 26z" />
    <glyph glyph-name="onehalf" unicode="&#xbd;" horiz-adv-x="1265" 
d="M125 1435q-26 0 -26 -26v-25q0 -95 -81 -148q0 -3 0 -2v-41q0 -15 14 -23q13 -8 26 1q0 -1 1 0q13 8 26 1q14 -8 14 -23v-1126q0 -26 26 -26h27q26 0 26 26v1386q0 26 -26 26h-27zM872 1506q-15 6 -31 0q-14 -6 -21 -22l-654 -1595q-7 -16 -1 -30q7 -15 22 -21l1 -1
q14 -6 30 0q14 6 21 22l655 1595q6 16 0 30q-7 15 -22 21v1zM1220 912q9 11 10 25v317q0 77 -51 131t-124 54q-72 0 -124 -54q-51 -54 -51 -131v-80q0 -16 11 -28q12 -11 28 -11h1q16 0 28 11q11 12 11 28v80q0 42 28 71q29 29 68 29q40 0 68 -29t28 -71v-287q0 -15 -10 -27
l-251 -176q-10 -11 -10 -27v-732h8v-5h267q16 0 27 12q12 11 12 27v4q0 16 -12 27q-11 12 -27 12h-157q-16 0 -27 11q-12 12 -12 28v579q0 15 10 26z" />
    <glyph glyph-name="threequarters" unicode="&#xbe;" horiz-adv-x="1265" 
d="M125 1435q-26 0 -26 -26v-25q0 -95 -81 -148q0 -3 0 -2v-41q0 -15 14 -23q13 -8 26 1q0 -1 1 0q13 8 26 1q14 -8 14 -23v-1126q0 -26 26 -26h27q26 0 26 26v1386q0 26 -26 26h-27zM872 1506q-15 6 -31 0q-14 -6 -21 -22l-654 -1595q-7 -16 -1 -30q7 -15 22 -21l1 -1
q14 -6 30 0q14 6 21 22l655 1595q6 16 0 30q-7 15 -22 21v1zM1220 912q9 11 10 25v317q0 77 -51 131t-124 54q-72 0 -124 -54q-51 -54 -51 -131v-80q0 -16 11 -28q12 -11 28 -11h1q16 0 28 11q11 12 11 28v80q0 42 28 71q29 29 68 29q40 0 68 -29t28 -71v-287q0 -15 -10 -27
l-251 -176q-10 -11 -10 -27v-732h8v-5h267q16 0 27 12q12 11 12 27v4q0 16 -12 27q-11 12 -27 12h-157q-16 0 -27 11q-12 12 -12 28v579q0 15 10 26z" />
    <glyph glyph-name="questiondown" unicode="&#xbf;" horiz-adv-x="610" 
d="M96 376q-8 -12 -8 -27v-306q0 -91 63 -156t152 -65q90 0 153 65t63 156v159q0 20 -14 34t-34 14h-2q-19 0 -33 -14q-15 -14 -15 -34v-159q0 -49 -34 -84q-35 -35 -84 -35q-48 0 -83 35t-35 84v271q0 13 7 25l157 263q6 11 6 24l1 90q0 20 -14 34t-34 14h-1q-20 0 -34 -14
t-14 -34v-84q0 -14 -8 -26zM352 976q0 20 -14 34t-34 14h-1q-20 0 -34 -14t-14 -34v-58q0 -20 14 -34t34 -14h1q20 0 34 14t14 34v58z" />
    <glyph glyph-name="Agrave" unicode="&#xc0;" horiz-adv-x="472" 
d="M204 1077l93 -756q3 -16 -15 -16h-156q-17 0 -15 16zM243 1408q1 -4 0 1t-4 11q-1 3 -2 4q-2 3 -6 7l-4 4q-3 1 -7 3q-5 2 -8 3h-1l-1 1h-1q3 -1 -5 -1q-7 0 -4 1h-1q-1 0 -1 -1h-2q-3 -1 -7 -3q-5 -2 -7 -3l-4 -4q-5 -4 -7 -7q0 -1 -2 -4q-2 -6 -3 -11q-1 -6 -1 -1
l-169 -1373q-2 -16 8 -29t26 -15h1q16 -2 29 8t15 26l23 186q1 13 14 13h184q13 0 15 -13l23 -186q2 -16 15 -26q12 -10 29 -8v0q17 2 27 15t8 29zM7 1624q8 7 20 9q14 2 22 -4l109 -136q1 -2 -1 -6q-3 -4 -8 -8v0q-5 -4 -11 -5q-4 -2 -6 0l-131 114q-8 7 -5 19q3 11 11 17
v0z" />
    <glyph glyph-name="Aacute" unicode="&#xc1;" horiz-adv-x="472" 
d="M237 1077l93 -756q3 -16 -15 -16h-156q-17 0 -15 16zM276 1408q1 -4 0 1t-4 11q-1 3 -2 4q-2 3 -6 7l-4 4q-3 1 -7 3q-5 2 -8 3h-1l-1 1h-1q3 -1 -5 -1q-7 0 -4 1h-1q-1 0 -1 -1h-2q-3 -1 -7 -3q-5 -2 -7 -3l-4 -4q-5 -4 -7 -7q0 -1 -2 -4q-2 -6 -3 -11q-1 -6 -1 -1
l-169 -1373q-2 -16 8 -29t26 -15h1q16 -2 29 8t15 26l23 186q1 13 14 13h184q13 0 15 -13l23 -186q2 -16 15 -26q12 -10 29 -8v0q17 2 27 15t8 29zM346 1624q8 -6 11 -17q3 -12 -5 -19l-130 -114q-3 -2 -7 0q-5 1 -11 5v0q-5 4 -8 8q-2 4 -1 6l109 136q8 6 22 4q12 -2 20 -9
v0z" />
    <glyph glyph-name="Acircumflex" unicode="&#xc2;" horiz-adv-x="472" 
d="M209 1077l93 -756q3 -16 -15 -16h-156q-17 0 -15 16zM248 1408q1 -4 0 1t-4 11q-1 3 -2 4q-2 3 -6 7l-4 4q-3 1 -7 3q-5 2 -8 3h-1l-1 1h-1q3 -1 -5 -1q-7 0 -4 1h-1q-1 0 -1 -1h-2q-3 -1 -7 -3q-5 -2 -7 -3l-4 -4q-5 -4 -7 -7q0 -1 -2 -4q-2 -6 -3 -11q-1 -6 -1 -1
l-169 -1373q-2 -16 8 -29t26 -15h1q16 -2 29 8t15 26l23 186q1 13 14 13h184q13 0 15 -13l23 -186q2 -16 15 -26q12 -10 29 -8v0q17 2 27 15t8 29zM251 1645q-8 16 -26 16h-13q-18 0 -26 -16l-66 -146q-9 -19 5 -33q10 -10 25 -8q16 3 22 16l46 110l47 -110q7 -17 26 -17v0
q13 0 21 9q14 14 5 33z" />
    <glyph glyph-name="Atilde" unicode="&#xc3;" horiz-adv-x="472" 
d="M140 1077l93 -756q3 -16 -15 -16h-156q-17 0 -15 16zM179 1408q1 -4 0 1t-4 11q-1 3 -2 4q-2 3 -6 7l-4 4q-3 1 -7 3q-5 2 -8 3h-1l-1 1h-1q3 -1 -5 -1q-7 0 -4 1h-1q-1 0 -1 -1h-2q-3 -1 -7 -3q-5 -2 -7 -3l-4 -4q-5 -4 -7 -7q0 -1 -2 -4q-2 -6 -3 -11q-1 -6 -1 -1
l-169 -1373q-2 -16 8 -29t26 -15h1q16 -2 29 8t15 26l23 186q1 13 14 13h184q13 0 15 -13l23 -186q2 -16 15 -26q12 -10 29 -8v0q17 2 27 15t8 29zM220 1453q-112 74 -130 76q-12 -2 -32 -49q-11 -25 -27 -8q-15 18 -4 43q32 75 63 75q25 0 141 -79q20 -4 28 6q15 19 23 36
q12 24 27 5q14 -19 3 -42q-12 -25 -30 -48q-16 -18 -41 -18q-12 0 -21 3z" />
    <glyph glyph-name="Adieresis" unicode="&#xc4;" horiz-adv-x="472" 
d="M156 1077l93 -756q3 -16 -15 -16h-156q-17 0 -15 16zM195 1408q1 -4 0 1t-4 11q-1 3 -2 4q-2 3 -6 7l-4 4q-3 1 -7 3q-5 2 -8 3h-1l-1 1h-1q3 -1 -5 -1q-7 0 -4 1h-1q-1 0 -1 -1h-2q-3 -1 -7 -3q-5 -2 -7 -3l-4 -4q-5 -4 -7 -7q0 -1 -2 -4q-2 -6 -3 -11q-1 -6 -1 -1
l-169 -1373q-2 -16 8 -29t26 -15h1q16 -2 29 8t15 26l23 186q1 13 14 13h184q13 0 15 -13l23 -186q2 -16 15 -26q12 -10 29 -8v0q17 2 27 15t8 29zM46 1493q0 -13 11 -23q12 -9 28 -9h1q16 0 28 9q11 10 11 23v93q0 13 -11 22q-12 10 -28 10h-1q-16 0 -28 -10
q-11 -9 -11 -22v-93zM173 1493q0 -13 12 -23q11 -9 27 -9h1q16 0 28 9q11 10 11 23v93q0 13 -11 22q-12 10 -28 10h-1q-16 0 -27 -10q-12 -9 -12 -22v-93z" />
    <glyph glyph-name="Aring" unicode="&#xc5;" horiz-adv-x="472" 
d="M237 1077l93 -756q3 -16 -15 -16h-156q-17 0 -15 16zM276 1408q1 -4 0 1t-4 11q-1 3 -2 4q-2 3 -6 7l-4 4q-3 1 -7 3q-5 2 -8 3h-1l-1 1h-1q3 -1 -5 -1q-7 0 -4 1h-1q-1 0 -1 -1h-2q-3 -1 -7 -3q-5 -2 -7 -3l-4 -4q-5 -4 -7 -7q0 -1 -2 -4q-2 -6 -3 -11q-1 -6 -1 -1
l-169 -1373q-2 -16 8 -29t26 -15h1q16 -2 29 8t15 26l23 186q1 13 14 13h184q13 0 15 -13l23 -186q2 -16 15 -26q12 -10 29 -8v0q17 2 27 15t8 29zM259 1531q0 -17 -11 -30t-26 -13t-25 13q-11 13 -11 30v82q0 17 11 30q10 13 25 13t26 -13t11 -30v-82zM167 1669
q-23 -23 -23 -56v-82q0 -33 23 -56q23 -24 55 -24q33 0 56 24q23 23 23 56v82q0 33 -23 56q-23 24 -56 24q-32 0 -55 -24z" />
    <glyph glyph-name="AE" unicode="&#xc6;" horiz-adv-x="731" 
d="M237 1077l93 -756q3 -16 -15 -16h-156q-17 0 -15 16zM276 1408q1 -4 0 1t-4 11q-1 3 -2 4q-2 3 -6 7l-4 4q-3 1 -7 3q-5 2 -8 3h-1l-1 1h-1q3 -1 -5 -1q-7 0 -4 1h-1q-1 0 -1 -1h-2q-3 -1 -7 -3q-5 -2 -7 -3l-4 -4q-5 -4 -7 -7q0 -1 -2 -4q-2 -6 -3 -11q-1 -6 -1 -1
l-169 -1373q-2 -16 8 -29t26 -15h1q16 -2 29 8t15 26l23 186q1 13 14 13h184q13 0 15 -13l23 -186q2 -16 15 -26q12 -10 29 -8v0q17 2 27 15t8 29zM640 806q30 0 30 29v1q0 30 -30 30h-159q-30 0 -30 29v430q0 29 30 29h159q30 0 30 30v19q0 30 -30 30h-237q-30 0 -30 -30
v-1374q0 -29 30 -29h237q30 0 30 29v21q0 30 -30 30h-159q-30 0 -30 29v667q0 30 30 30h159z" />
    <glyph glyph-name="Ccedilla" unicode="&#xc7;" horiz-adv-x="478" 
d="M91 1407q-54 -52 -54 -125v-1115q0 -73 54 -125q54 -51 129 -51q74 0 126 46q53 47 57 116q1 10 1 14v99q0 16 -12 27q-11 11 -28 11q-16 0 -28 -11q-11 -11 -11 -27v-112q0 -44 -33 -74q-32 -31 -76 -29q-42 2 -71 35q-29 32 -29 75v1125q0 68 57 93q56 25 105 -7
q47 -30 47 -85v-103q0 -16 11 -27q12 -12 28 -12q17 0 28 12q12 11 12 27v98q0 73 -54 125t-130 52q-75 0 -129 -52zM264 -56q9 24 -12 31v1q-21 7 -29 -17l-24 -70q0 1 -1 -3q-1 -3 0 -1l-1 -1q-7 -18 14 -27l17 -6q23 -9 33 -30q10 -20 2 -41q-8 -20 -29 -28q-22 -9 -44 0
l-18 7q-20 8 -28 -11v0q-7 -19 14 -27l17 -6q39 -16 77 -1q38 14 52 50q13 36 -4 72q-17 35 -55 51z" />
    <glyph glyph-name="Egrave" unicode="&#xc8;" horiz-adv-x="425" 
d="M300 806q30 0 30 29v1q0 30 -30 30h-159q-30 0 -30 29v430q0 29 30 29h159q30 0 30 30v19q0 30 -30 30h-237q-30 0 -30 -30v-1374q0 -29 30 -29h237q30 0 30 29v21q0 30 -30 30h-159q-30 0 -30 29v667q0 30 30 30h159zM-13 1624q8 7 20 9q14 2 22 -4l109 -136q1 -2 -1 -6
q-3 -4 -8 -8v0q-5 -4 -11 -5q-4 -2 -6 0l-131 114q-8 7 -5 19q3 11 11 17v0z" />
    <glyph glyph-name="Eacute" unicode="&#xc9;" horiz-adv-x="425" 
d="M330 806q30 0 30 29v1q0 30 -30 30h-159q-30 0 -30 29v430q0 29 30 29h159q30 0 30 30v19q0 30 -30 30h-237q-30 0 -30 -30v-1374q0 -29 30 -29h237q30 0 30 29v21q0 30 -30 30h-159q-30 0 -30 29v667q0 30 30 30h159zM323 1624q8 -6 11 -17q3 -12 -5 -19l-130 -114
q-3 -2 -7 0q-5 1 -11 5v0q-5 4 -8 8q-2 4 -1 6l109 136q8 6 22 4q12 -2 20 -9v0z" />
    <glyph glyph-name="Ecircumflex" unicode="&#xca;" horiz-adv-x="425" 
d="M246 806q30 0 30 29v1q0 30 -30 30h-159q-30 0 -30 29v430q0 29 30 29h159q30 0 30 30v19q0 30 -30 30h-237q-30 0 -30 -30v-1374q0 -29 30 -29h237q30 0 30 29v21q0 30 -30 30h-159q-30 0 -30 29v667q0 30 30 30h159zM172 1645q-8 16 -26 16h-13q-18 0 -26 -16l-66 -146
q-9 -19 5 -33q10 -10 25 -8q16 3 22 16l46 110l47 -110q7 -17 26 -17v0q13 0 21 9q14 14 5 33z" />
    <glyph glyph-name="Edieresis" unicode="&#xcb;" horiz-adv-x="425" 
d="M193 806q30 0 30 29v1q0 30 -30 30h-159q-30 0 -30 29v430q0 29 30 29h159q30 0 30 30v19q0 30 -30 30h-237q-30 0 -30 -30v-1374q0 -29 30 -29h237q30 0 30 29v21q0 30 -30 30h-159q-30 0 -30 29v667q0 30 30 30h159zM-33 1493q0 -13 11 -23q12 -9 28 -9h1q16 0 28 9
q11 10 11 23v93q0 13 -11 22q-12 10 -28 10h-1q-16 0 -28 -10q-11 -9 -11 -22v-93zM94 1493q0 -13 12 -23q11 -9 27 -9h1q16 0 28 9q11 10 11 23v93q0 13 -11 22q-12 10 -28 10h-1q-16 0 -27 -10q-12 -9 -12 -22v-93z" />
    <glyph glyph-name="Igrave" unicode="&#xcc;" horiz-adv-x="186" 
d="M59 1436q-16 0 -28 -12q-11 -11 -11 -27v-1355q0 -16 11 -27q12 -12 28 -12h1q16 0 28 12q11 11 11 27v1355q0 16 -11 27q-12 12 -28 12h-1zM-135 1624q8 7 20 9q14 2 22 -4l109 -136q1 -2 -1 -6q-3 -4 -8 -8v0q-5 -4 -11 -5q-4 -2 -6 0l-131 114q-8 7 -5 19q3 11 11 17
v0z" />
    <glyph glyph-name="Iacute" unicode="&#xcd;" horiz-adv-x="186" 
d="M-19 1436q-16 0 -28 -12q-11 -11 -11 -27v-1355q0 -16 11 -27q12 -12 28 -12h1q16 0 28 12q11 11 11 27v1355q0 16 -11 27q-12 12 -28 12h-1zM93 1624q8 -6 11 -17q3 -12 -5 -19l-130 -114q-3 -2 -7 0q-5 1 -11 5v0q-5 4 -8 8q-2 4 -1 6l109 136q8 6 22 4q12 -2 20 -9v0z
" />
    <glyph glyph-name="Icircumflex" unicode="&#xce;" horiz-adv-x="186" 
d="M-48 1436q-16 0 -28 -12q-11 -11 -11 -27v-1355q0 -16 11 -27q12 -12 28 -12h1q16 0 28 12q11 11 11 27v1355q0 16 -11 27q-12 12 -28 12h-1zM-3 1645q-8 16 -26 16h-13q-18 0 -26 -16l-66 -146q-9 -19 5 -33q10 -10 25 -8q16 3 22 16l46 110l47 -110q7 -17 26 -17v0
q13 0 21 9q14 14 5 33z" />
    <glyph glyph-name="Idieresis" unicode="&#xcf;" horiz-adv-x="186" 
d="M-89 1436q-16 0 -28 -12q-11 -11 -11 -27v-1355q0 -16 11 -27q12 -12 28 -12h1q16 0 28 12q11 11 11 27v1355q0 16 -11 27q-12 12 -28 12h-1zM-196 1493q0 -13 11 -23q12 -9 28 -9h1q16 0 28 9q11 10 11 23v93q0 13 -11 22q-12 10 -28 10h-1q-16 0 -28 -10
q-11 -9 -11 -22v-93zM-69 1493q0 -13 12 -23q11 -9 27 -9h1q16 0 28 9q11 10 11 23v93q0 13 -11 22q-12 10 -28 10h-1q-16 0 -27 -10q-12 -9 -12 -22v-93z" />
    <glyph glyph-name="Eth" unicode="&#xd0;" horiz-adv-x="635" 
d="M486 169q0 -42 -31 -72t-74 -30h-82h-43v620h121q27 0 27 39v1q0 39 -27 39h-121v620h43h82q43 0 74 -30t31 -72v-1115zM256 1459v1h-21q-25 0 -42 -18q-18 -18 -18 -43v-633h-116q-27 0 -27 -39v-1q0 -39 27 -39h116v-633q0 -25 18 -43q17 -18 42 -18h146q77 0 132 52
q55 51 55 124v1115q0 73 -55 124q-55 52 -132 52z" />
    <glyph glyph-name="Ntilde" unicode="&#xd1;" horiz-adv-x="585" 
d="M35 1433q-22 0 -37 -16q-16 -15 -16 -37v-1348q0 -35 36 -35h1q38 0 38 37v1345l262 -1337q9 -45 56 -45h1q32 0 55 22q22 22 22 53v1330q0 31 -31 31h-10q-36 0 -36 -35v-1310l-249 1293q-10 52 -63 52h-29zM300 1453q-112 74 -130 76q-12 -2 -32 -49q-11 -25 -27 -8
q-15 18 -4 43q32 75 63 75q25 0 141 -79q20 -4 28 6q15 19 23 36q12 24 27 5q14 -19 3 -42q-12 -25 -30 -48q-16 -18 -41 -18q-12 0 -21 3z" />
    <glyph glyph-name="Ograve" unicode="&#xd2;" horiz-adv-x="515" 
d="M316 167q0 -42 -31 -71q-30 -30 -74 -30q-43 0 -73 30q-31 29 -31 71v1112q0 42 31 72q30 29 73 29q44 0 74 -29q31 -30 31 -72v-1112zM82 1404q-54 -52 -54 -125v-1112q0 -72 54 -124t129 -52q76 0 130 52t54 124v1112q0 73 -54 125q-54 51 -130 51q-75 0 -129 -51z
M17 1624q8 7 20 9q14 2 22 -4l109 -136q1 -2 -1 -6q-3 -4 -8 -8v0q-5 -4 -11 -5q-4 -2 -6 0l-131 114q-8 7 -5 19q3 11 11 17v0z" />
    <glyph glyph-name="Oacute" unicode="&#xd3;" horiz-adv-x="515" 
d="M351 167q0 -42 -31 -71q-30 -30 -74 -30q-43 0 -73 30q-31 29 -31 71v1112q0 42 31 72q30 29 73 29q44 0 74 -29q31 -30 31 -72v-1112zM117 1404q-54 -52 -54 -125v-1112q0 -72 54 -124t129 -52q76 0 130 52t54 124v1112q0 73 -54 125q-54 51 -130 51q-75 0 -129 -51z
M358 1624q8 -6 11 -17q3 -12 -5 -19l-130 -114q-3 -2 -7 0q-5 1 -11 5v0q-5 4 -8 8q-2 4 -1 6l109 136q8 6 22 4q12 -2 20 -9v0z" />
    <glyph glyph-name="Ocircumflex" unicode="&#xd4;" horiz-adv-x="515" 
d="M297 167q0 -42 -31 -71q-30 -30 -74 -30q-43 0 -73 30q-31 29 -31 71v1112q0 42 31 72q30 29 73 29q44 0 74 -29q31 -30 31 -72v-1112zM63 1404q-54 -52 -54 -125v-1112q0 -72 54 -124t129 -52q76 0 130 52t54 124v1112q0 73 -54 125q-54 51 -130 51q-75 0 -129 -51z
M237 1645q-8 16 -26 16h-13q-18 0 -26 -16l-66 -146q-9 -19 5 -33q10 -10 25 -8q16 3 22 16l46 110l47 -110q7 -17 26 -17v0q13 0 21 9q14 14 5 33z" />
    <glyph glyph-name="Otilde" unicode="&#xd5;" horiz-adv-x="515" 
d="M228 167q0 -42 -31 -71q-30 -30 -74 -30q-43 0 -73 30q-31 29 -31 71v1112q0 42 31 72q30 29 73 29q44 0 74 -29q31 -30 31 -72v-1112zM-6 1404q-54 -52 -54 -125v-1112q0 -72 54 -124t129 -52q76 0 130 52t54 124v1112q0 73 -54 125q-54 51 -130 51q-75 0 -129 -51z
M206 1453q-112 74 -130 76q-12 -2 -32 -49q-11 -25 -27 -8q-15 18 -4 43q32 75 63 75q25 0 141 -79q20 -4 28 6q15 19 23 36q12 24 27 5q14 -19 3 -42q-12 -25 -30 -48q-16 -18 -41 -18q-12 0 -21 3z" />
    <glyph glyph-name="Odieresis" unicode="&#xd6;" horiz-adv-x="515" 
d="M244 167q0 -42 -31 -71q-30 -30 -74 -30q-43 0 -73 30q-31 29 -31 71v1112q0 42 31 72q30 29 73 29q44 0 74 -29q31 -30 31 -72v-1112zM10 1404q-54 -52 -54 -125v-1112q0 -72 54 -124t129 -52q76 0 130 52t54 124v1112q0 73 -54 125q-54 51 -130 51q-75 0 -129 -51z
M32 1493q0 -13 11 -23q12 -9 28 -9h1q16 0 28 9q11 10 11 23v93q0 13 -11 22q-12 10 -28 10h-1q-16 0 -28 -10q-11 -9 -11 -22v-93zM159 1493q0 -13 12 -23q11 -9 27 -9h1q16 0 28 9q11 10 11 23v93q0 13 -11 22q-12 10 -28 10h-1q-16 0 -27 -10q-12 -9 -12 -22v-93z" />
    <glyph glyph-name="multiply" unicode="&#xd7;" horiz-adv-x="1014" 
d="M507 618l-247 -247l-99 99l247 247l-247 248l99 98l247 -247l248 247l98 -99l-247 -247l247 -247l-99 -99z" />
    <glyph glyph-name="Oslash" unicode="&#xd8;" horiz-adv-x="515" 
d="M373 162q0 -42 -31 -71q-30 -30 -74 -30q-43 0 -73 30q-31 29 -31 71v1112q0 42 31 72q30 29 73 29q44 0 74 -29q31 -30 31 -72v-1112zM139 1399q-54 -52 -54 -125v-1112q0 -72 54 -124t129 -52q76 0 130 52t54 124v1112q0 73 -54 125q-54 51 -130 51q-75 0 -129 -51z
M444 1476q-16 5 -30 -5q-14 -8 -18 -24l-354 -1402q-5 -17 2 -31q9 -16 24 -21l1 -1q16 -5 31 5q13 8 18 25l355 1401q3 17 -4 31q-9 16 -24 21z" />
    <glyph glyph-name="Ugrave" unicode="&#xd9;" horiz-adv-x="518" 
d="M41 173q0 -73 54 -125t129 -52q76 0 130 52t54 125v1236q0 16 -12 27q-11 12 -27 12h-1q-16 0 -28 -12q-11 -11 -11 -27v-1236q0 -42 -31 -72q-30 -30 -74 -30q-43 0 -73 30q-31 30 -31 72v1236q0 16 -11 27q-12 12 -28 12h-1q-16 0 -28 -12q-11 -11 -11 -27v-1236z
M30 1624q8 7 20 9q14 2 22 -4l109 -136q1 -2 -1 -6q-3 -4 -8 -8v0q-5 -4 -11 -5q-4 -2 -6 0l-131 114q-8 7 -5 19q3 11 11 17v0z" />
    <glyph glyph-name="Uacute" unicode="&#xda;" horiz-adv-x="518" 
d="M76 173q0 -73 54 -125t129 -52q76 0 130 52t54 125v1236q0 16 -12 27q-11 12 -27 12h-1q-16 0 -28 -12q-11 -11 -11 -27v-1236q0 -42 -31 -72q-30 -30 -74 -30q-43 0 -73 30q-31 30 -31 72v1236q0 16 -11 27q-12 12 -28 12h-1q-16 0 -28 -12q-11 -11 -11 -27v-1236z
M371 1624q8 -6 11 -17q3 -12 -5 -19l-130 -114q-3 -2 -7 0q-5 1 -11 5v0q-5 4 -8 8q-2 4 -1 6l109 136q8 6 22 4q12 -2 20 -9v0z" />
    <glyph glyph-name="Ucircumflex" unicode="&#xdb;" horiz-adv-x="518" 
d="M22 173q0 -73 54 -125t129 -52q76 0 130 52t54 125v1236q0 16 -12 27q-11 12 -27 12h-1q-16 0 -28 -12q-11 -11 -11 -27v-1236q0 -42 -31 -72q-30 -30 -74 -30q-43 0 -73 30q-31 30 -31 72v1236q0 16 -11 27q-12 12 -28 12h-1q-16 0 -28 -12q-11 -11 -11 -27v-1236z
M250 1645q-8 16 -26 16h-13q-18 0 -26 -16l-66 -146q-9 -19 5 -33q10 -10 25 -8q16 3 22 16l46 110l47 -110q7 -17 26 -17v0q13 0 21 9q14 14 5 33z" />
    <glyph glyph-name="Udieresis" unicode="&#xdc;" horiz-adv-x="518" 
d="M-31 173q0 -73 54 -125t129 -52q76 0 130 52t54 125v1236q0 16 -12 27q-11 12 -27 12h-1q-16 0 -28 -12q-11 -11 -11 -27v-1236q0 -42 -31 -72q-30 -30 -74 -30q-43 0 -73 30q-31 30 -31 72v1236q0 16 -11 27q-12 12 -28 12h-1q-16 0 -28 -12q-11 -11 -11 -27v-1236z
M45 1493q0 -13 11 -23q12 -9 28 -9h1q16 0 28 9q11 10 11 23v93q0 13 -11 22q-12 10 -28 10h-1q-16 0 -28 -10q-11 -9 -11 -22v-93zM172 1493q0 -13 12 -23q11 -9 27 -9h1q16 0 28 9q11 10 11 23v93q0 13 -11 22q-12 10 -28 10h-1q-16 0 -27 -10q-12 -9 -12 -22v-93z" />
    <glyph glyph-name="Yacute" unicode="&#xdd;" horiz-adv-x="461" 
d="M237 0q29 0 29 29l1 475v2q1 2 1 3l173 892q3 14 -6 24q-9 11 -23 11h-13q-25 0 -30 -24l-130 -744q-1 -10 -12 -10q-10 0 -12 10l-130 744q-4 24 -29 24h-13q-14 0 -23 -11q-9 -10 -6 -24l174 -900v-3t1 -3v-466q0 -29 29 -29h19zM339 1624q8 -6 11 -17q3 -12 -5 -19
l-130 -114q-3 -2 -7 0q-5 1 -11 5v0q-5 4 -8 8q-2 4 -1 6l109 136q8 6 22 4q12 -2 20 -9v0z" />
    <glyph glyph-name="Thorn" unicode="&#xde;" horiz-adv-x="502" 
d="M347 175q0 -40 -28 -68t-68 -28q-39 0 -68 28q-28 28 -28 68v730q0 40 28 68q29 28 68 28q40 0 68 -28t28 -68v-730zM155 1052v466q0 39 -38 39h-3q-38 0 -38 -39v-1855q0 -17 11 -28q12 -12 28 -12h1q16 0 28 12q11 11 11 28v366q44 -29 96 -29q73 0 124 51t51 124v730
q0 73 -51 124q-51 52 -124 52q-52 0 -96 -29z" />
    <glyph glyph-name="germandbls" unicode="&#xdf;" horiz-adv-x="497" 
d="M422 1278q0 72 -54 123q-53 52 -128 52h-107v0h-41q-37 0 -37 -38v-1391q0 -38 37 -38q17 0 29 12t12 29v1316q0 37 37 38h75q41 0 70 -29q28 -28 28 -69v-229q0 -72 -68 -96q-28 -11 -28 -42q0 -32 28 -42q68 -25 68 -99v-610q0 -96 -36 -113q-30 -15 -67 25
q-10 11 -24 11q-15 0 -24 -11h-1q-18 -22 1 -43q64 -70 140 -51q90 23 90 178v588q0 70 -52 121l-31 32l31 31q52 51 52 121v224z" />
    <glyph glyph-name="agrave" unicode="&#xe0;" horiz-adv-x="459" 
d="M290 169q0 -38 -28 -64t-68 -26q-39 0 -68 26q-28 26 -28 64v405q0 37 28 64q29 26 68 26q40 0 68 -26q28 -27 28 -64v-405zM369 870q0 64 -45 113q-46 49 -114 55q-77 7 -134 -42q-57 -47 -57 -118v-61q0 -18 12 -31q11 -13 27 -13q17 0 28 13q12 13 12 31v61
q0 41 34 67q35 27 80 20q34 -6 57 -33q21 -26 21 -59v-177q-44 26 -96 26q-72 0 -124 -47q-51 -47 -51 -114v-397q0 -66 51 -114q52 -47 124 -47q52 0 96 27q1 -35 39 -35h1q16 0 28 10q11 11 11 26v839zM0 1214q8 7 20 9q14 2 22 -4l109 -136q1 -2 -1 -6q-3 -4 -8 -8v0
q-5 -4 -11 -5q-4 -2 -6 0l-131 114q-8 7 -5 19q3 11 11 17v0z" />
    <glyph glyph-name="aacute" unicode="&#xe1;" horiz-adv-x="459" 
d="M325 169q0 -38 -28 -64t-68 -26q-39 0 -68 26q-28 26 -28 64v405q0 37 28 64q29 26 68 26q40 0 68 -26q28 -27 28 -64v-405zM404 870q0 64 -45 113q-46 49 -114 55q-77 7 -134 -42q-57 -47 -57 -118v-61q0 -18 12 -31q11 -13 27 -13q17 0 28 13q12 13 12 31v61
q0 41 34 67q35 27 80 20q34 -6 57 -33q21 -26 21 -59v-177q-44 26 -96 26q-72 0 -124 -47q-51 -47 -51 -114v-397q0 -66 51 -114q52 -47 124 -47q52 0 96 27q1 -35 39 -35h1q16 0 28 10q11 11 11 26v839zM340 1214q8 -6 11 -17q3 -12 -5 -19l-130 -114q-3 -2 -7 0
q-5 1 -11 5v0q-5 4 -8 8q-2 4 -1 6l109 136q8 6 22 4q12 -2 20 -9v0z" />
    <glyph glyph-name="acircumflex" unicode="&#xe2;" horiz-adv-x="459" 
d="M263 169q0 -38 -28 -64t-68 -26q-39 0 -68 26q-28 26 -28 64v405q0 37 28 64q29 26 68 26q40 0 68 -26q28 -27 28 -64v-405zM342 870q0 64 -45 113q-46 49 -114 55q-77 7 -134 -42q-57 -47 -57 -118v-61q0 -18 12 -31q11 -13 27 -13q17 0 28 13q12 13 12 31v61
q0 41 34 67q35 27 80 20q34 -6 57 -33q21 -26 21 -59v-177q-44 26 -96 26q-72 0 -124 -47q-51 -47 -51 -114v-397q0 -66 51 -114q52 -47 124 -47q52 0 96 27q1 -35 39 -35h1q16 0 28 10q11 11 11 26v839zM211 1235q-8 16 -26 16h-13q-18 0 -26 -16l-66 -146q-9 -19 5 -33
q10 -10 25 -8q16 3 22 16l46 110l47 -110q7 -17 26 -17v0q13 0 21 9q14 14 5 33z" />
    <glyph glyph-name="atilde" unicode="&#xe3;" horiz-adv-x="459" 
d="M193 169q0 -38 -28 -64t-68 -26q-39 0 -68 26q-28 26 -28 64v405q0 37 28 64q29 26 68 26q40 0 68 -26q28 -27 28 -64v-405zM272 870q0 64 -45 113q-46 49 -114 55q-77 7 -134 -42q-57 -47 -57 -118v-61q0 -18 12 -31q11 -13 27 -13q17 0 28 13q12 13 12 31v61
q0 41 34 67q35 27 80 20q34 -6 57 -33q21 -26 21 -59v-177q-44 26 -96 26q-72 0 -124 -47q-51 -47 -51 -114v-397q0 -66 51 -114q52 -47 124 -47q52 0 96 27q1 -35 39 -35h1q16 0 28 10q11 11 11 26v839zM179 1043q-112 74 -130 76q-12 -2 -32 -49q-11 -25 -27 -8
q-15 18 -4 43q32 75 63 75q25 0 141 -79q20 -4 28 6q15 19 23 36q12 24 27 5q14 -19 3 -42q-12 -25 -30 -48q-16 -18 -41 -18q-12 0 -21 3z" />
    <glyph glyph-name="adieresis" unicode="&#xe4;" horiz-adv-x="459" 
d="M210 169q0 -38 -28 -64t-68 -26q-39 0 -68 26q-28 26 -28 64v405q0 37 28 64q29 26 68 26q40 0 68 -26q28 -27 28 -64v-405zM289 870q0 64 -45 113q-46 49 -114 55q-77 7 -134 -42q-57 -47 -57 -118v-61q0 -18 12 -31q11 -13 27 -13q17 0 28 13q12 13 12 31v61
q0 41 34 67q35 27 80 20q34 -6 57 -33q21 -26 21 -59v-177q-44 26 -96 26q-72 0 -124 -47q-51 -47 -51 -114v-397q0 -66 51 -114q52 -47 124 -47q52 0 96 27q1 -35 39 -35h1q16 0 28 10q11 11 11 26v839zM6 1083q0 -13 11 -23q12 -9 28 -9h1q16 0 28 9q11 10 11 23v93
q0 13 -11 22q-12 10 -28 10h-1q-16 0 -28 -10q-11 -9 -11 -22v-93zM133 1083q0 -13 12 -23q11 -9 27 -9h1q16 0 28 9q11 10 11 23v93q0 13 -11 22q-12 10 -28 10h-1q-16 0 -27 -10q-12 -9 -12 -22v-93z" />
    <glyph glyph-name="aring" unicode="&#xe5;" horiz-adv-x="459" 
d="M323 169q0 -38 -28 -64t-68 -26q-39 0 -68 26q-28 26 -28 64v405q0 37 28 64q29 26 68 26q40 0 68 -26q28 -27 28 -64v-405zM402 870q0 64 -45 113q-46 49 -114 55q-77 7 -134 -42q-57 -47 -57 -118v-61q0 -18 12 -31q11 -13 27 -13q17 0 28 13q12 13 12 31v61
q0 41 34 67q35 27 80 20q34 -6 57 -33q21 -26 21 -59v-177q-44 26 -96 26q-72 0 -124 -47q-51 -47 -51 -114v-397q0 -66 51 -114q52 -47 124 -47q52 0 96 27q1 -35 39 -35h1q16 0 28 10q11 11 11 26v839zM251 1121q0 -17 -11 -30t-26 -13t-25 13q-11 13 -11 30v82
q0 17 11 30q10 13 25 13t26 -13t11 -30v-82zM159 1259q-23 -23 -23 -56v-82q0 -33 23 -56q23 -24 55 -24q33 0 56 24q23 23 23 56v82q0 33 -23 56q-23 24 -56 24q-32 0 -55 -24z" />
    <glyph glyph-name="ae" unicode="&#xe6;" horiz-adv-x="779" 
d="M325 169q0 -38 -28 -64t-68 -26q-39 0 -68 26q-28 26 -28 64v405q0 37 28 64q29 26 68 26q40 0 68 -26q28 -27 28 -64v-405zM404 870q0 64 -45 113q-46 49 -114 55q-77 7 -134 -42q-57 -47 -57 -118v-61q0 -18 12 -31q11 -13 27 -13q17 0 28 13q12 13 12 31v61
q0 41 34 67q35 27 80 20q34 -6 57 -33q21 -26 21 -59v-177q-44 26 -96 26q-72 0 -124 -47q-51 -47 -51 -114v-397q0 -66 51 -114q52 -47 124 -47q52 0 96 27q1 -35 39 -35h1q16 0 28 10q11 11 11 26v839zM445 864q0 35 22 62q22 28 56 34q46 8 80 -20t34 -71v-251l-192 -70
v316zM411 979q-45 -51 -45 -119v-687q0 -69 45 -120q46 -52 114 -58q78 -7 135 44q56 51 56 125v100q0 16 -11 27q-12 11 -28 11h-1q-16 0 -27 -11q-12 -11 -12 -27v-95q0 -35 -21 -63q-23 -28 -57 -34q-45 -7 -80 21q-34 28 -34 71v307l231 70v0h1q16 0 28 11q11 11 11 26
v291q0 74 -56 125q-57 50 -135 44q-68 -7 -114 -59z" />
    <glyph glyph-name="ccedilla" unicode="&#xe7;" horiz-adv-x="469" 
d="M82 980q-45 -53 -45 -120v-696q0 -68 45 -120q46 -53 114 -59q78 -7 135 45q56 50 56 126v101q0 16 -11 27q-12 11 -28 11h-1q-16 0 -27 -11q-12 -11 -12 -27v-97q0 -35 -21 -62q-23 -29 -57 -35q-45 -7 -80 21q-34 28 -34 72v708q0 35 22 62q22 28 56 34q46 8 80 -20
q34 -29 34 -72v-102q0 -15 12 -26q11 -12 27 -12h1q16 0 28 12q11 11 11 26v102q0 76 -56 126q-57 52 -135 45q-68 -7 -114 -59zM256 -56q9 24 -12 31v1q-21 7 -29 -17l-24 -70q0 1 -1 -3q-1 -3 0 -1l-1 -1q-7 -18 14 -27l17 -6q23 -9 33 -30q10 -20 2 -41q-8 -20 -29 -28
q-22 -9 -44 0l-18 7q-20 8 -28 -11v0q-7 -19 14 -27l17 -6q39 -16 77 -1q38 14 52 50q13 36 -4 72q-17 35 -55 51z" />
    <glyph glyph-name="egrave" unicode="&#xe8;" horiz-adv-x="449" 
d="M93 864q0 35 22 62q22 28 56 34q46 8 80 -20t34 -71v-251l-192 -70v316zM59 979q-45 -51 -45 -119v-687q0 -69 45 -120q46 -52 114 -58q78 -7 135 44q56 51 56 125v100q0 16 -11 27q-12 11 -28 11h-1q-16 0 -27 -11q-12 -11 -12 -27v-95q0 -35 -21 -63q-23 -28 -57 -34
q-45 -7 -80 21q-34 28 -34 71v307l231 70v0h1q16 0 28 11q11 11 11 26v291q0 74 -56 125q-57 50 -135 44q-68 -7 -114 -59zM-5 1214q8 7 20 9q14 2 22 -4l109 -136q1 -2 -1 -6q-3 -4 -8 -8v0q-5 -4 -11 -5q-4 -2 -6 0l-131 114q-8 7 -5 19q3 11 11 17v0z" />
    <glyph glyph-name="eacute" unicode="&#xe9;" horiz-adv-x="449" 
d="M128 864q0 35 22 62q22 28 56 34q46 8 80 -20t34 -71v-251l-192 -70v316zM94 979q-45 -51 -45 -119v-687q0 -69 45 -120q46 -52 114 -58q78 -7 135 44q56 51 56 125v100q0 16 -11 27q-12 11 -28 11h-1q-16 0 -27 -11q-12 -11 -12 -27v-95q0 -35 -21 -63q-23 -28 -57 -34
q-45 -7 -80 21q-34 28 -34 71v307l231 70v0h1q16 0 28 11q11 11 11 26v291q0 74 -56 125q-57 50 -135 44q-68 -7 -114 -59zM335 1214q8 -6 11 -17q3 -12 -5 -19l-130 -114q-3 -2 -7 0q-5 1 -11 5v0q-5 4 -8 8q-2 4 -1 6l109 136q8 6 22 4q12 -2 20 -9v0z" />
    <glyph glyph-name="ecircumflex" unicode="&#xea;" horiz-adv-x="449" 
d="M66 864q0 35 22 62q22 28 56 34q46 8 80 -20t34 -71v-251l-192 -70v316zM32 979q-45 -51 -45 -119v-687q0 -69 45 -120q46 -52 114 -58q78 -7 135 44q56 51 56 125v100q0 16 -11 27q-12 11 -28 11h-1q-16 0 -27 -11q-12 -11 -12 -27v-95q0 -35 -21 -63q-23 -28 -57 -34
q-45 -7 -80 21q-34 28 -34 71v307l231 70v0h1q16 0 28 11q11 11 11 26v291q0 74 -56 125q-57 50 -135 44q-68 -7 -114 -59zM206 1235q-8 16 -26 16h-13q-18 0 -26 -16l-66 -146q-9 -19 5 -33q10 -10 25 -8q16 3 22 16l46 110l47 -110q7 -17 26 -17v0q13 0 21 9q14 14 5 33z
" />
    <glyph glyph-name="edieresis" unicode="&#xeb;" horiz-adv-x="449" 
d="M13 864q0 35 22 62q22 28 56 34q46 8 80 -20t34 -71v-251l-192 -70v316zM-21 979q-45 -51 -45 -119v-687q0 -69 45 -120q46 -52 114 -58q78 -7 135 44q56 51 56 125v100q0 16 -11 27q-12 11 -28 11h-1q-16 0 -27 -11q-12 -11 -12 -27v-95q0 -35 -21 -63q-23 -28 -57 -34
q-45 -7 -80 21q-34 28 -34 71v307l231 70v0h1q16 0 28 11q11 11 11 26v291q0 74 -56 125q-57 50 -135 44q-68 -7 -114 -59zM1 1083q0 -13 11 -23q12 -9 28 -9h1q16 0 28 9q11 10 11 23v93q0 13 -11 22q-12 10 -28 10h-1q-16 0 -28 -10q-11 -9 -11 -22v-93zM128 1083
q0 -13 12 -23q11 -9 27 -9h1q16 0 28 9q11 10 11 23v93q0 13 -11 22q-12 10 -28 10h-1q-16 0 -27 -10q-12 -9 -12 -22v-93z" />
    <glyph glyph-name="igrave" unicode="&#xec;" horiz-adv-x="252" 
d="M97 -2q16 0 28 12q11 11 11 29v947q0 18 -11 29q-12 12 -28 12h-1q-16 0 -28 -12q-11 -11 -11 -29v-947q0 -18 11 -29q12 -12 28 -12h1zM-98 1214q8 7 20 9q14 2 22 -4l109 -136q1 -2 -1 -6q-3 -4 -8 -8v0q-5 -4 -11 -5q-4 -2 -6 0l-131 114q-8 7 -5 19q3 11 11 17v0z
" />
    <glyph glyph-name="iacute" unicode="&#xed;" horiz-adv-x="252" 
d="M19 -2q16 0 28 12q11 11 11 29v947q0 18 -11 29q-12 12 -28 12h-1q-16 0 -28 -12q-11 -11 -11 -29v-947q0 -18 11 -29q12 -12 28 -12h1zM130 1214q8 -6 11 -17q3 -12 -5 -19l-130 -114q-3 -2 -7 0q-5 1 -11 5v0q-5 4 -8 8q-2 4 -1 6l109 136q8 6 22 4q12 -2 20 -9v0z" />
    <glyph glyph-name="icircumflex" unicode="&#xee;" horiz-adv-x="252" 
d="M-10 -2q16 0 28 12q11 11 11 29v947q0 18 -11 29q-12 12 -28 12h-1q-16 0 -28 -12q-11 -11 -11 -29v-947q0 -18 11 -29q12 -12 28 -12h1zM34 1235q-8 16 -26 16h-13q-18 0 -26 -16l-66 -146q-9 -19 5 -33q10 -10 25 -8q16 3 22 16l46 110l47 -110q7 -17 26 -17v0
q13 0 21 9q14 14 5 33z" />
    <glyph glyph-name="idieresis" unicode="&#xef;" horiz-adv-x="252" 
d="M-51 -2q16 0 28 12q11 11 11 29v947q0 18 -11 29q-12 12 -28 12h-1q-16 0 -28 -12q-11 -11 -11 -29v-947q0 -18 11 -29q12 -12 28 -12h1zM-159 1083q0 -13 11 -23q12 -9 28 -9h1q16 0 28 9q11 10 11 23v93q0 13 -11 22q-12 10 -28 10h-1q-16 0 -28 -10q-11 -9 -11 -22
v-93zM-32 1083q0 -13 12 -23q11 -9 27 -9h1q16 0 28 9q11 10 11 23v93q0 13 -11 22q-12 10 -28 10h-1q-16 0 -27 -10q-12 -9 -12 -22v-93z" />
    <glyph glyph-name="eth" unicode="&#xf0;" horiz-adv-x="571" 
d="M345 161q0 -39 -30 -67q-31 -27 -75 -27q-43 0 -74 27q-30 28 -30 67v679q0 40 28 68q28 29 68 29q73 1 108 -53q5 -9 5 -20v-703zM509 1357q-18 25 -37 11l-64 -46q-49 96 -168 96q-40 0 -77 -15q-15 -7 -21 -23q-5 -16 4 -30q17 -27 45 -13q23 11 49 11q37 0 66 -21
q29 -20 37 -52l-95 -68q-20 -14 -1 -39v-1q18 -25 37 -11l61 44v-198q0 -13 -11 -8q-53 24 -102 24q-73 0 -124 -52q-52 -53 -52 -126v-679q0 -68 54 -116q54 -47 130 -47q77 0 131 47q54 48 54 116v1096l84 60q19 14 1 39z" />
    <glyph glyph-name="ntilde" unicode="&#xf1;" horiz-adv-x="459" 
d="M5 978v30q0 16 -11 28q-12 11 -28 11h-1q-16 0 -28 -11q-11 -12 -11 -28v-969q0 -16 11 -28q12 -11 28 -11h1q16 0 28 11q11 12 11 28v811q0 13 5 23q37 78 100 76q40 -2 68 -29q28 -28 28 -68v-817q0 -16 12 -28q11 -11 27 -11h1q16 0 28 11q11 12 11 28v817
q0 75 -47 127q-48 53 -119 52q-46 0 -114 -53zM188 1043q-112 74 -130 76q-12 -2 -32 -49q-11 -25 -27 -8q-15 18 -4 43q32 75 63 75q25 0 141 -79q20 -4 28 6q15 19 23 36q12 24 27 5q14 -19 3 -42q-12 -25 -30 -48q-16 -18 -41 -18q-12 0 -21 3z" />
    <glyph glyph-name="ograve" unicode="&#xf2;" horiz-adv-x="466" 
d="M285 174q0 -38 -28 -65t-68 -27q-39 0 -68 27q-28 27 -28 65v702q0 38 28 65q29 27 68 27q40 0 68 -27t28 -65v-702zM65 996q-51 -50 -51 -120v-702q0 -70 51 -120q52 -50 124 -50q73 0 124 50t51 120v702q0 70 -51 120q-51 49 -124 49q-72 0 -124 -49zM-5 1214q8 7 20 9
q14 2 22 -4l109 -136q1 -2 -1 -6q-3 -4 -8 -8v0q-5 -4 -11 -5q-4 -2 -6 0l-131 114q-8 7 -5 19q3 11 11 17v0z" />
    <glyph glyph-name="oacute" unicode="&#xf3;" horiz-adv-x="466" 
d="M320 174q0 -38 -28 -65t-68 -27q-39 0 -68 27q-28 27 -28 65v702q0 38 28 65q29 27 68 27q40 0 68 -27t28 -65v-702zM100 996q-51 -50 -51 -120v-702q0 -70 51 -120q52 -50 124 -50q73 0 124 50t51 120v702q0 70 -51 120q-51 49 -124 49q-72 0 -124 -49zM335 1214
q8 -6 11 -17q3 -12 -5 -19l-130 -114q-3 -2 -7 0q-5 1 -11 5v0q-5 4 -8 8q-2 4 -1 6l109 136q8 6 22 4q12 -2 20 -9v0z" />
    <glyph glyph-name="ocircumflex" unicode="&#xf4;" horiz-adv-x="466" 
d="M258 174q0 -38 -28 -65t-68 -27q-39 0 -68 27q-28 27 -28 65v702q0 38 28 65q29 27 68 27q40 0 68 -27t28 -65v-702zM38 996q-51 -50 -51 -120v-702q0 -70 51 -120q52 -50 124 -50q73 0 124 50t51 120v702q0 70 -51 120q-51 49 -124 49q-72 0 -124 -49zM206 1235
q-8 16 -26 16h-13q-18 0 -26 -16l-66 -146q-9 -19 5 -33q10 -10 25 -8q16 3 22 16l46 110l47 -110q7 -17 26 -17v0q13 0 21 9q14 14 5 33z" />
    <glyph glyph-name="otilde" unicode="&#xf5;" horiz-adv-x="466" 
d="M188 174q0 -38 -28 -65t-68 -27q-39 0 -68 27q-28 27 -28 65v702q0 38 28 65q29 27 68 27q40 0 68 -27t28 -65v-702zM-32 996q-51 -50 -51 -120v-702q0 -70 51 -120q52 -50 124 -50q73 0 124 50t51 120v702q0 70 -51 120q-51 49 -124 49q-72 0 -124 -49zM174 1043
q-112 74 -130 76q-12 -2 -32 -49q-11 -25 -27 -8q-15 18 -4 43q32 75 63 75q25 0 141 -79q20 -4 28 6q15 19 23 36q12 24 27 5q14 -19 3 -42q-12 -25 -30 -48q-16 -18 -41 -18q-12 0 -21 3z" />
    <glyph glyph-name="odieresis" unicode="&#xf6;" horiz-adv-x="466" 
d="M205 174q0 -38 -28 -65t-68 -27q-39 0 -68 27q-28 27 -28 65v702q0 38 28 65q29 27 68 27q40 0 68 -27t28 -65v-702zM-15 996q-51 -50 -51 -120v-702q0 -70 51 -120q52 -50 124 -50q73 0 124 50t51 120v702q0 70 -51 120q-51 49 -124 49q-72 0 -124 -49zM1 1083
q0 -13 11 -23q12 -9 28 -9h1q16 0 28 9q11 10 11 23v93q0 13 -11 22q-12 10 -28 10h-1q-16 0 -28 -10q-11 -9 -11 -22v-93zM128 1083q0 -13 12 -23q11 -9 27 -9h1q16 0 28 9q11 10 11 23v93q0 13 -11 22q-12 10 -28 10h-1q-16 0 -27 -10q-12 -9 -12 -22v-93z" />
    <glyph glyph-name="divide" unicode="&#xf7;" horiz-adv-x="773" 
d="M677 687q0 23 -11 39q-9 15 -24 15h-517q-15 0 -24 -15q-11 -16 -11 -39v0q0 -23 11 -39q9 -15 24 -15h517q15 0 24 15q11 16 11 39v0zM328 872q0 -16 11 -27q12 -12 28 -12h1q16 0 28 12q11 11 11 27v68q0 16 -11 27q-12 12 -28 12h-1q-16 0 -28 -12q-11 -11 -11 -27
v-68zM328 439q0 -16 11 -27q12 -12 28 -12h1q16 0 28 12q11 11 11 27v68q0 16 -11 27q-12 12 -28 12h-1q-16 0 -28 -12q-11 -11 -11 -27v-68z" />
    <glyph glyph-name="oslash" unicode="&#xf8;" horiz-adv-x="466" 
d="M335 169q0 -38 -28 -65t-68 -27q-39 0 -68 27q-28 27 -28 65v702q0 38 28 65q29 27 68 27q40 0 68 -27t28 -65v-702zM115 991q-51 -50 -51 -120v-702q0 -70 51 -120q52 -50 124 -50q73 0 124 50t51 120v702q0 70 -51 120q-51 49 -124 49q-72 0 -124 -49zM425 1316
q-16 5 -30 -5q-14 -8 -18 -24l-354 -1402q-5 -17 2 -31q9 -16 24 -21l1 -1q16 -5 31 5q13 8 18 25l355 1401q3 17 -4 31q-9 16 -24 21z" />
    <glyph glyph-name="ugrave" unicode="&#xf9;" horiz-adv-x="460" 
d="M11 173q0 -73 54 -125t129 -52q76 0 130 52t54 125v816q0 16 -12 27q-11 12 -27 12h-1q-16 0 -28 -12q-11 -11 -11 -27v-816q0 -42 -31 -72q-30 -30 -74 -30q-43 0 -73 30q-31 30 -31 72v816q0 16 -11 27q-12 12 -28 12h-1q-16 0 -28 -12q-11 -11 -11 -27v-816zM-5 1214
q8 7 20 9q14 2 22 -4l109 -136q1 -2 -1 -6q-3 -4 -8 -8v0q-5 -4 -11 -5q-4 -2 -6 0l-131 114q-8 7 -5 19q3 11 11 17v0z" />
    <glyph glyph-name="uacute" unicode="&#xfa;" horiz-adv-x="460" 
d="M45 173q0 -73 54 -125t129 -52q76 0 130 52t54 125v816q0 16 -12 27q-11 12 -27 12h-1q-16 0 -28 -12q-11 -11 -11 -27v-816q0 -42 -31 -72q-30 -30 -74 -30q-43 0 -73 30q-31 30 -31 72v816q0 16 -11 27q-12 12 -28 12h-1q-16 0 -28 -12q-11 -11 -11 -27v-816zM335 1214
q8 -6 11 -17q3 -12 -5 -19l-130 -114q-3 -2 -7 0q-5 1 -11 5v0q-5 4 -8 8q-2 4 -1 6l109 136q8 6 22 4q12 -2 20 -9v0z" />
    <glyph glyph-name="ucircumflex" unicode="&#xfb;" horiz-adv-x="460" 
d="M-13 173q0 -73 54 -125t129 -52q76 0 130 52t54 125v816q0 16 -12 27q-11 12 -27 12h-1q-16 0 -28 -12q-11 -11 -11 -27v-816q0 -42 -31 -72q-30 -30 -74 -30q-43 0 -73 30q-31 30 -31 72v816q0 16 -11 27q-12 12 -28 12h-1q-16 0 -28 -12q-11 -11 -11 -27v-816z
M210 1235q-8 16 -26 16h-13q-18 0 -26 -16l-66 -146q-9 -19 5 -33q10 -10 25 -8q16 3 22 16l46 110l47 -110q7 -17 26 -17v0q13 0 21 9q14 14 5 33z" />
    <glyph glyph-name="udieresis" unicode="&#xfc;" horiz-adv-x="460" 
d="M-66 173q0 -73 54 -125t129 -52q76 0 130 52t54 125v816q0 16 -12 27q-11 12 -27 12h-1q-16 0 -28 -12q-11 -11 -11 -27v-816q0 -42 -31 -72q-30 -30 -74 -30q-43 0 -73 30q-31 30 -31 72v816q0 16 -11 27q-12 12 -28 12h-1q-16 0 -28 -12q-11 -11 -11 -27v-816zM5 1083
q0 -13 11 -23q12 -9 28 -9h1q16 0 28 9q11 10 11 23v93q0 13 -11 22q-12 10 -28 10h-1q-16 0 -28 -10q-11 -9 -11 -22v-93zM132 1083q0 -13 12 -23q11 -9 27 -9h1q16 0 28 9q11 10 11 23v93q0 13 -11 22q-12 10 -28 10h-1q-16 0 -27 -10q-12 -9 -12 -22v-93z" />
    <glyph glyph-name="yacute" unicode="&#xfd;" horiz-adv-x="416" 
d="M70 1036q-17 0 -28 -13t-9 -29l137 -1104q0 -76 -70 -96q-25 -7 -25 -36v-4q0 -18 14 -29q15 -12 32 -7q56 16 92 62q36 47 36 107l129 1107q2 17 -9 29q-12 13 -28 13h-1q-34 0 -37 -34l-81 -870q-1 -6 -7 -6t-6 6l-101 870q-4 34 -37 34h-1zM317 1214q8 -6 11 -17
q3 -12 -5 -19l-130 -114q-3 -2 -7 0q-5 1 -11 5v0q-5 4 -8 8q-2 4 -1 6l109 136q8 6 22 4q12 -2 20 -9v0z" />
    <glyph glyph-name="thorn" unicode="&#xfe;" horiz-adv-x="449" 
d="M135 865q0 38 28 66q29 27 68 27q40 0 68 -27q28 -28 28 -66v-705q0 -38 -28 -65q-28 -28 -68 -28q-39 0 -68 28q-28 27 -28 65v705zM96 -372q16 0 28 11q11 11 11 27v353q44 -28 96 -28q73 0 124 49q51 50 51 120v705q0 70 -51 120q-51 49 -124 49q-52 0 -96 -28
q-1 37 -39 37h-1q-16 0 -28 -11q-11 -11 -11 -27v-1339q0 -16 11 -27q12 -11 28 -11h1zM95 1373q-38 0 -38 -39v-1208q0 -67 44 -116q17 -20 42 -10q24 10 24 36v6q0 12 -9 23q-22 27 -22 61v1208q0 39 -38 39h-3z" />
    <glyph glyph-name="ydieresis" unicode="&#xff;" horiz-adv-x="384" 
d="M41 1036q-17 0 -28 -13t-9 -29l137 -1104q0 -76 -70 -96q-25 -7 -25 -36v-4q0 -18 14 -29q15 -12 32 -7q56 16 92 62q36 47 36 107l129 1107q2 17 -9 29q-12 13 -28 13h-1q-34 0 -37 -34l-81 -870q-1 -6 -7 -6t-6 6l-101 870q-4 34 -37 34h-1zM69 1083q0 -13 11 -23
q12 -9 28 -9h1q16 0 28 9q11 10 11 23v93q0 13 -11 22q-12 10 -28 10h-1q-16 0 -28 -10q-11 -9 -11 -22v-93zM196 1083q0 -13 12 -23q11 -9 27 -9h1q16 0 28 9q11 10 11 23v93q0 13 -11 22q-12 10 -28 10h-1q-16 0 -27 -10q-12 -9 -12 -22v-93z" />
    <glyph glyph-name="dotlessi" unicode="&#x131;" horiz-adv-x="206" 
d="M100 -2q16 0 28 12q11 11 11 29v947q0 18 -11 29q-12 12 -28 12h-1q-16 0 -28 -12q-11 -11 -11 -29v-947q0 -18 11 -29q12 -12 28 -12h1z" />
    <glyph glyph-name="circumflex" unicode="&#x2c6;" 
d="M540 1235q-8 16 -26 16h-13q-18 0 -26 -16l-66 -146q-9 -19 5 -33q10 -10 25 -8q16 3 22 16l46 110l47 -110q7 -17 26 -17v0q13 0 21 9q14 14 5 33z" />
    <glyph glyph-name="caron" unicode="&#x2c7;" 
d="M610 1262q15 0 23 -13t0 -27l-112 -198q-8 -14 -23 -14h-22q-16 0 -23 14l-113 198q-7 14 1 27q7 13 23 13v0q16 0 24 -14l97 -185h3l97 185q8 14 24 14h1z" />
    <glyph glyph-name="uni02C9" unicode="&#x2c9;" 
d="M682 1093q0 18 -11 31q-9 11 -25 11h-295q-16 0 -25 -11q-11 -13 -11 -31v0q0 -18 11 -31q9 -11 25 -11h295q16 0 25 11q11 13 11 31v0z" />
    <glyph glyph-name="breve" unicode="&#x2d8;" 
d="M386 1145q0 -42 27 -71q28 -30 66 -30q39 0 66 30q27 29 27 71v19q0 22 -19 22h-1q-20 0 -20 -22v-19q0 -24 -15 -41q-16 -17 -38 -17t-37 17q-16 17 -16 41v19q0 22 -20 22v0q-20 0 -20 -22v-19z" />
    <glyph glyph-name="dotaccent" unicode="&#x2d9;" 
d="M555 1101q0 -21 -15 -36q-14 -15 -35 -15t-36 15t-15 36v96q0 21 15 36t36 15t35 -15q15 -15 15 -36v-96z" />
    <glyph glyph-name="ring" unicode="&#x2da;" 
d="M537 1121q0 -17 -11 -30t-26 -13t-25 13q-11 13 -11 30v82q0 17 11 30q10 13 25 13t26 -13t11 -30v-82zM445 1259q-23 -23 -23 -56v-82q0 -33 23 -56q23 -24 55 -24q33 0 56 24q23 23 23 56v82q0 33 -23 56q-23 24 -56 24q-32 0 -55 -24z" />
    <glyph glyph-name="ogonek" unicode="&#x2db;" 
d="M560 -218q-36 -22 -76 -14t-59 42q-20 33 -8 71q11 39 47 61l80 47q19 12 29 -6v0q10 -17 -9 -28l-79 -48q-21 -12 -27 -34q-7 -22 4 -41t34 -24q22 -4 43 8l16 10q19 11 29 -6h1q10 -18 -9 -29z" />
    <glyph glyph-name="tilde" unicode="&#x2dc;" 
d="M532 1043q-112 74 -130 76q-12 -2 -32 -49q-11 -25 -27 -8q-15 18 -4 43q32 75 63 75q25 0 141 -79q20 -4 28 6q15 19 23 36q12 24 27 5q14 -19 3 -42q-12 -25 -30 -48q-16 -18 -41 -18q-12 0 -21 3z" />
    <glyph glyph-name="hungarumlaut" unicode="&#x2dd;" 
d="M526 1214q8 -6 11 -17q3 -12 -5 -19l-130 -114q-3 -2 -7 0q-5 1 -11 5v0q-5 4 -8 8q-2 4 -1 6l109 136q8 6 22 4q12 -2 20 -9v0zM633 1214q8 -6 11 -17q3 -12 -5 -19l-130 -114q-3 -2 -7 0q-5 1 -11 5v0q-5 4 -8 8q-2 4 -1 6l109 136q8 6 22 4q12 -2 20 -9v0z" />
    <glyph glyph-name="endash" unicode="&#x2013;" horiz-adv-x="1108" 
d="M983 470q0 23 -14 39q-11 15 -31 15h-765q-20 0 -31 -15q-14 -16 -14 -39v0q0 -23 14 -39q11 -15 31 -15h765q20 0 31 15q14 16 14 39v0z" />
    <glyph glyph-name="emdash" unicode="&#x2014;" horiz-adv-x="2048" 
d="M1958 479q0 24 -14 41q-12 16 -33 16h-1774q-21 0 -33 -16q-14 -17 -14 -41v0q0 -24 14 -41q12 -16 33 -16h1774q21 0 33 16q14 17 14 41v0z" />
    <glyph glyph-name="quoteleft" unicode="&#x2018;" horiz-adv-x="557" 
d="M240 1091q0 4 1 -4v0q3 -48 48 -48v0q21 0 35 16q15 14 15 36v113q0 21 -15 37q-14 14 -35 14h-1q3 29 12 46q8 15 38 35q6 4 -4 18q-10 15 -19 18q-24 8 -56 -51q-18 -32 -18 -85v-29q-1 -8 -1 -3v-113z" />
    <glyph glyph-name="quoteright" unicode="&#x2019;" horiz-adv-x="557" 
d="M340 1321q0 -4 -2 4v0q-2 48 -48 48v0q-21 0 -34 -16q-15 -14 -15 -36v-113q0 -21 15 -36q13 -15 34 -15h2q-3 -28 -13 -45q-7 -16 -37 -35q-6 -4 4 -19t18 -18q25 -7 57 51q17 32 17 86v28q2 8 2 3v113z" />
    <glyph glyph-name="quotesinglbase" unicode="&#x201a;" horiz-adv-x="557" 
d="M308 161q0 -4 -2 4v0q-2 48 -48 48v0q-21 0 -34 -16q-15 -14 -15 -36v-113q0 -21 15 -36q13 -15 34 -15h2q-3 -28 -13 -45q-7 -16 -37 -35q-6 -4 4 -19t18 -18q25 -7 57 51q17 32 17 86v28q2 8 2 3v113z" />
    <glyph glyph-name="quotedblleft" unicode="&#x201c;" horiz-adv-x="910" 
d="M240 1091q0 4 1 -4v0q3 -48 48 -48v0q21 0 35 16q15 14 15 36v113q0 21 -15 37q-14 14 -35 14h-1q3 29 12 46q8 15 38 35q6 4 -4 18q-10 15 -19 18q-24 8 -56 -51q-18 -32 -18 -85v-29q-1 -8 -1 -3v-113zM405 1091q0 4 1 -4v0q3 -48 48 -48v0q21 0 35 16q15 14 15 36v113
q0 21 -15 37q-14 14 -35 14h-1q3 29 12 46q8 15 38 35q6 4 -4 18q-10 15 -19 18q-24 8 -56 -51q-18 -32 -18 -85v-29q-1 -8 -1 -3v-113z" />
    <glyph glyph-name="quotedblright" unicode="&#x201d;" horiz-adv-x="910" 
d="M585 1321q0 -4 -1 4v0q-3 48 -48 48v0q-21 0 -35 -16q-15 -14 -15 -36v-113q0 -21 15 -37q14 -14 35 -14h1q-3 -29 -12 -46q-8 -15 -38 -35q-6 -4 4 -18q10 -15 19 -18q24 -8 56 51q18 32 18 85v29q1 8 1 3v113zM420 1321q0 -4 -1 4v0q-3 48 -48 48v0q-21 0 -35 -16
q-15 -14 -15 -36v-113q0 -21 15 -37q14 -14 35 -14h1q-3 -29 -12 -46q-8 -15 -38 -35q-6 -4 4 -18q10 -15 19 -18q24 -8 56 51q18 32 18 85v29q1 8 1 3v113z" />
    <glyph glyph-name="quotedblbase" unicode="&#x201e;" horiz-adv-x="910" 
d="M585 115q0 -4 -1 4v0q-3 48 -48 48v0q-21 0 -35 -16q-15 -14 -15 -36v-113q0 -21 15 -37q14 -14 35 -14h1q-3 -29 -12 -46q-8 -15 -38 -35q-6 -4 4 -18q10 -15 19 -18q24 -8 56 51q18 32 18 85v29q1 8 1 3v113zM420 115q0 -4 -1 4v0q-3 48 -48 48v0q-21 0 -35 -16
q-15 -14 -15 -36v-113q0 -21 15 -37q14 -14 35 -14h1q-3 -29 -12 -46q-8 -15 -38 -35q-6 -4 4 -18q10 -15 19 -18q24 -8 56 51q18 32 18 85v29q1 8 1 3v113z" />
    <glyph glyph-name="dagger" unicode="&#x2020;" horiz-adv-x="1014" 
d="M486 1022q-8 97 -54 178q-57 101 -57 129q0 49 36 78.5t96 29.5q57 0 94.5 -27.5t37.5 -71.5q0 -32 -55 -137q-46 -85 -55 -179q96 8 177 54q101 57 129 57q49 0 79 -36t30 -96q0 -57 -27.5 -94.5t-72.5 -37.5q-32 0 -136 55q-85 46 -179 57q8 -176 110 -277
q-106 -460 -112 -974h-38q-6 514 -114 974q102 101 111 277q-96 -10 -178 -55q-101 -57 -129 -57q-49 0 -78.5 36t-29.5 96q0 57 27.5 94.5t71.5 37.5q32 0 137 -56q85 -46 179 -55z" />
    <glyph glyph-name="daggerdbl" unicode="&#x2021;" horiz-adv-x="1014" 
d="M528 186q94 11 179 57q104 55 136 55q45 0 72.5 -37.5t27.5 -94.5q0 -60 -30 -96t-79 -36q-28 0 -129 57q-81 46 -177 54q9 -94 55 -179q55 -105 55 -137q0 -44 -37.5 -71.5t-94.5 -27.5q-60 0 -96 29.5t-36 78.5q0 28 57 129q46 81 54 178q-94 -9 -179 -55
q-105 -56 -137 -56q-44 0 -71.5 37.5t-27.5 94.5q0 60 29.5 96t78.5 36q28 0 129 -57q82 -45 178 -55q-9 226 -111 398q102 171 111 397q-96 -10 -178 -55q-101 -57 -129 -57q-49 0 -78.5 36t-29.5 96q0 57 27.5 94.5t71.5 37.5q32 0 137 -56q85 -46 179 -55q-8 97 -54 178
q-57 101 -57 129q0 49 36 78.5t96 29.5q57 0 94.5 -27.5t37.5 -71.5q0 -32 -55 -137q-46 -85 -55 -179q96 8 177 54q101 57 129 57q49 0 79 -36t30 -96q0 -57 -27.5 -94.5t-72.5 -37.5q-32 0 -136 55q-85 46 -179 57q8 -226 110 -397q-102 -172 -110 -398z" />
    <glyph glyph-name="bullet" unicode="&#x2022;" 
d="M216 718q0 123 87 209t210 86q122 0 208.5 -86.5t86.5 -208.5t-87.5 -209.5t-209.5 -87.5q-123 0 -209 87t-86 210z" />
    <glyph glyph-name="ellipsis" unicode="&#x2026;" horiz-adv-x="2048" 
d="M49 38q0 -16 11 -27q12 -12 28 -12h1q16 0 28 12q11 11 11 27v68q0 16 -11 27q-12 12 -28 12h-1q-16 0 -28 -12q-11 -11 -11 -27v-68zM732 38q0 -16 11 -27q12 -12 28 -12h1q16 0 28 12q11 11 11 27v68q0 16 -11 27q-12 12 -28 12h-1q-16 0 -28 -12q-11 -11 -11 -27v-68z
M1415 38q0 -16 11 -27q12 -12 28 -12h1q16 0 28 12q11 11 11 27v68q0 16 -11 27q-12 12 -28 12h-1q-16 0 -28 -12q-11 -11 -11 -27v-68z" />
    <glyph glyph-name="guilsinglleft" unicode="&#x2039;" horiz-adv-x="631" 
d="M174 479l342 303h14v-37l-205 -266l205 -266v-37h-14z" />
    <glyph glyph-name="guilsinglright" unicode="&#x203a;" horiz-adv-x="631" 
d="M115 176h-14v37l205 266l-205 266v37h14l342 -303z" />
    <glyph glyph-name="fraction" unicode="&#x2044;" horiz-adv-x="569" 
d="M626 1506q-15 6 -31 0q-14 -6 -21 -22l-654 -1595q-7 -16 -1 -30q7 -15 22 -21l1 -1q14 -6 30 0q14 6 21 22l655 1595q6 16 0 30q-7 15 -22 21v1z" />
    <glyph glyph-name="fraction" unicode="&#x2215;" horiz-adv-x="569" 
d="M626 1506q-15 6 -31 0q-14 -6 -21 -22l-654 -1595q-7 -16 -1 -30q7 -15 22 -21l1 -1q14 -6 30 0q14 6 21 22l655 1595q6 16 0 30q-7 15 -22 21v1z" />
    <glyph glyph-name="franc" unicode="&#x20a3;" horiz-adv-x="616" 
d="M221 1416q-54 -52 -54 -126v-464h-96q-44 0 -44 -33v-1q0 -33 44 -33h96v-68h-96q-44 0 -44 -32v-1q0 -33 44 -33h96v-464q0 -74 54 -126q54 -53 130 -53q73 0 125 48q53 47 57 117q1 10 1 14v100q0 16 -12 27q-11 11 -28 11q-16 0 -28 -11q-11 -11 -11 -27v-114
q0 -44 -32 -75q-33 -30 -77 -28q-42 2 -71 35q-29 32 -29 76v470h198q44 0 44 33v1q0 32 -44 32h-198v68h198q44 0 44 33v1q0 33 -44 33h-198v468q0 68 57 93q56 26 105 -6q47 -31 47 -87v-104q0 -16 11 -27q12 -12 28 -12q17 0 28 12q12 11 12 27v100q0 74 -54 126t-129 52
q-76 0 -130 -52z" />
    <glyph glyph-name="lira" unicode="&#x20a4;" horiz-adv-x="616" 
d="M221 1416q-54 -52 -54 -126v-464h-96q-44 0 -44 -33v-1q0 -33 44 -33h96v-68h-96q-44 0 -44 -32v-1q0 -33 44 -33h96v-464q0 -74 54 -126q54 -53 130 -53q73 0 125 48q53 47 57 117q1 10 1 14v100q0 16 -12 27q-11 11 -28 11q-16 0 -28 -11q-11 -11 -11 -27v-114
q0 -44 -32 -75q-33 -30 -77 -28q-42 2 -71 35q-29 32 -29 76v470h198q44 0 44 33v1q0 32 -44 32h-198v68h198q44 0 44 33v1q0 33 -44 33h-198v468q0 68 57 93q56 26 105 -6q47 -31 47 -87v-104q0 -16 11 -27q12 -12 28 -12q17 0 28 12q12 11 12 27v100q0 74 -54 126t-129 52
q-76 0 -130 -52z" />
    <glyph glyph-name="peseta" unicode="&#x20a7;" horiz-adv-x="616" 
d="M221 1416q-54 -52 -54 -126v-464h-96q-44 0 -44 -33v-1q0 -33 44 -33h96v-68h-96q-44 0 -44 -32v-1q0 -33 44 -33h96v-464q0 -74 54 -126q54 -53 130 -53q73 0 125 48q53 47 57 117q1 10 1 14v100q0 16 -12 27q-11 11 -28 11q-16 0 -28 -11q-11 -11 -11 -27v-114
q0 -44 -32 -75q-33 -30 -77 -28q-42 2 -71 35q-29 32 -29 76v470h198q44 0 44 33v1q0 32 -44 32h-198v68h198q44 0 44 33v1q0 33 -44 33h-198v468q0 68 57 93q56 26 105 -6q47 -31 47 -87v-104q0 -16 11 -27q12 -12 28 -12q17 0 28 12q12 11 12 27v100q0 74 -54 126t-129 52
q-76 0 -130 -52z" />
    <glyph glyph-name="Euro" unicode="&#x20ac;" horiz-adv-x="616" 
d="M221 1416q-54 -52 -54 -126v-464h-96q-44 0 -44 -33v-1q0 -33 44 -33h96v-68h-96q-44 0 -44 -32v-1q0 -33 44 -33h96v-464q0 -74 54 -126q54 -53 130 -53q73 0 125 48q53 47 57 117q1 10 1 14v100q0 16 -12 27q-11 11 -28 11q-16 0 -28 -11q-11 -11 -11 -27v-114
q0 -44 -32 -75q-33 -30 -77 -28q-42 2 -71 35q-29 32 -29 76v470h198q44 0 44 33v1q0 32 -44 32h-198v68h198q44 0 44 33v1q0 33 -44 33h-198v468q0 68 57 93q56 26 105 -6q47 -31 47 -87v-104q0 -16 11 -27q12 -12 28 -12q17 0 28 12q12 11 12 27v100q0 74 -54 126t-129 52
q-76 0 -130 -52z" />
    <glyph glyph-name="afii61352" unicode="&#x2116;" horiz-adv-x="1242" 
d="M106 1433q-22 0 -37 -16q-16 -15 -16 -37v-1348q0 -35 36 -35h1q38 0 38 37v1345l262 -1337q9 -45 56 -45h1q32 0 55 22q22 22 22 53v1330q0 31 -31 31h-10q-36 0 -36 -35v-1310l-249 1293q-10 52 -63 52h-29zM936.191 911.396q0 -22.7988 -18.4795 -38.998
t-44.8779 -16.1992q-25.7393 0 -44.8779 16.1992q-18.4795 16.1992 -18.4795 38.998v421.183q0 22.7998 18.4795 38.999q19.1387 16.1992 44.8779 16.1992q26.3984 0 44.8779 -16.1992t18.4795 -38.999v-421.183zM790.997 1404.58q-33.6582 -29.999 -33.6582 -71.998
v-421.183q0 -41.998 33.6582 -71.9971q34.3193 -29.998 81.8369 -29.998q48.1777 0 81.8369 29.998q33.6582 29.999 33.6582 71.9971v421.183q0 41.999 -33.6582 71.998q-33.6592 29.3984 -81.8369 29.3984q-47.5176 0 -81.8369 -29.3984zM1112 684q0 17 -6 29
q-5.5 12 -15 12h-436q-9.5 0 -15 -12q-6 -12 -6 -29v-2q0 -17 6 -29q5.5 -12 15 -12h436q9.5 0 15 12q6 12 6 29v2z" />
    <glyph glyph-name="trademark" unicode="&#x2122;" horiz-adv-x="538" 
d="M108.702 862q17.5508 0 17.5508 15.2012v510.431q0 15.2012 17.1006 15.2012h27.4512q17.5498 0 17.5498 15.2012v1.59961q0 14.8018 -17.5498 14.8018h-124.204q-17.5498 0 -17.5498 -14.8018v-1.59961q0 -6.40039 4.94922 -10.8008q5.40039 -4.40039 12.6006 -4.40039
h27.001q17.5508 0 17.5508 -15.2012v-510.431q0 -15.2012 17.5498 -15.2012v0zM434.357 1389.63q0.450195 2.7998 3.60059 2.39941q3.14941 0 3.14941 -2.7998v-512.031q0 -6.40039 4.9502 -10.8008q5.40039 -4.80078 13.0508 -4.80078h0.450195q15.75 0 15.75 13.6016
v533.633q0 10 -8.5498 17.2002q-8.10059 7.20117 -19.3506 7.20117h-10.3506q-22.9502 0 -26.5508 -20.002l-82.8018 -490.029h-0.900391l-83.252 492.03q-3.15039 18.001 -23.8506 18.001h-16.6504q-9.90039 0 -17.1006 -6.00098q-6.75 -6 -6.75 -14.8008v-536.433
q0 -14.4014 16.6504 -14.4014h0.899414q16.6504 0 16.6504 14.8018v512.031q0 2.7998 3.15039 3.2002q3.15039 0 3.59961 -2.80078l84.6025 -511.631q2.7002 -15.6016 20.7012 -15.6016h3.14941q18.4512 0 20.7012 15.6016z" />
    <glyph glyph-name="partialdiff" unicode="&#x2202;" horiz-adv-x="490" 
d="M356 161q0 -39 -30 -67q-31 -27 -75 -27q-43 0 -74 27q-30 28 -30 67v679q0 40 28 68q28 29 68 29q73 1 108 -53q5 -9 5 -20v-703zM174 1403q-15 -7 -21 -23q-5 -16 4 -30q17 -27 45 -13q23 11 49 11q44 0 75 -27q30 -28 30 -67v-252q0 -13 -11 -8q-53 24 -102 24
q-73 0 -124 -52q-52 -53 -52 -126v-679q0 -68 54 -116q54 -47 130 -47q77 0 131 47q54 48 54 116v1093q0 68 -54 116t-131 48q-40 0 -77 -15z" />
    <glyph glyph-name="Delta" unicode="&#x2206;" horiz-adv-x="1081" 
d="M514 1195l-406 -1072h801zM547 1434l526 -1434h-1067z" />
    <glyph glyph-name="product" unicode="&#x220f;" horiz-adv-x="1515" 
d="M511 1384q-102 0 -102 -235v-1281q0 -235 102 -235h97v-51h-560v51h96q103 0 103 235v1281q0 235 -103 235h-96v50h1419v-50h-97q-102 0 -102 -235v-1281q0 -235 102 -235h97v-50h-560v50h96q103 0 103 235v1281q0 235 -103 235h-492z" />
    <glyph glyph-name="summation" unicode="&#x2211;" horiz-adv-x="1206" 
d="M1059 548l-788 -914h635q130 0 189 182h49l-103 -232h-921v50q62 0 106 53l663 781l-663 859q-44 57 -106 57v50h921l103 -232h-49q-59 182 -189 182h-485z" />
    <glyph glyph-name="minus" unicode="&#x2212;" horiz-adv-x="813" 
d="M710 687q0 23 -11 39q-9 15 -24 15h-517q-15 0 -24 -15q-11 -16 -11 -39v0q0 -23 11 -39q9 -15 24 -15h517q15 0 24 15q11 16 11 39v0z" />
    <glyph glyph-name="radical" unicode="&#x221a;" horiz-adv-x="1014" 
d="M181 0l-164 359l74 35l85 -185l728 1470h150v-60h-72z" />
    <glyph glyph-name="infinity" unicode="&#x221e;" horiz-adv-x="1014" 
d="M439 755q-15 103 -74 133q-46 22 -84 22q-12 0 -23 -2q-49 -10 -92.5 -44.5t-65.5 -84.5q-20 -46 -20 -90v-8q2 -48 27.5 -89t71.5 -58q29 -11 61 -11q16 0 33 3q47 10 90.5 43.5t75.5 185.5zM466 687q12 -96 94 -153q69 -48 123 -48q11 0 21 2q62 12 117.5 52t84.5 101
q26 54 26 108v11q-2 60 -35.5 108.5t-91.5 68.5q-37 13 -76 13q-22 0 -44 -4q-67 -9 -127 -62t-92 -197zM450 827q9 35 21 69q34 88 95 137t128 49t128 -48t95 -135t34 -182t-34 -182t-95 -135t-128 -48t-128 49t-95 136q-12 35 -21 70q-5 -21 -12 -41q-27 -73 -74 -113
t-99 -40t-100 41t-73.5 113.5t-25.5 149.5q0 76 25.5 149t73.5 114t100 41t99 -40t74 -112q7 -21 12 -42z" />
    <glyph glyph-name="integral" unicode="&#x222b;" horiz-adv-x="665" 
d="M-12 -281q-60 0 -60 29v159h36q1 -43 34.5 -64.5t63.5 -21.5h1q82 0 115 162q32 162 40 316l70 734l8 62q27 238 135 429.5t234 191.5q60 0 60 -29v-159h-36q-1 43 -35 64.5t-63 21.5q-71 0 -116 -155.5t-49 -363.5l-73 -767q-20 -231 -130.5 -420t-234.5 -189z" />
    <glyph glyph-name="approxequal" unicode="&#x2248;" horiz-adv-x="1336" 
d="M783 518q-248 120 -289 122q-26 -2 -71 -79q-24 -40 -59 -12q-34 28 -10 68q72 121 140 121q56 0 314 -127q45 -6 63 10q38 34 52 59q25 38 58 8q33 -31 7 -69q-25 -39 -67 -76q-33 -31 -91 -31q-26 0 -47 6zM783 292q-248 120 -289 122q-26 -2 -71 -79q-24 -40 -59 -12
q-34 28 -10 68q72 121 140 121q56 0 314 -127q45 -6 63 10q38 34 52 59q25 38 58 8q33 -31 7 -69q-25 -39 -67 -76q-33 -31 -91 -31q-26 0 -47 6z" />
    <glyph glyph-name="lessequal" unicode="&#x2264;" horiz-adv-x="794" 
d="M703 203q0 -23 -20 -35t-41 -1l-511 285q-21 12 -21 36v97q0 24 21 36l511 285q21 11 41 -1t20 -35v-1q0 -24 -20 -36l-451 -261q-21 -12 -21 -36q0 -23 21 -35l451 -261q20 -12 20 -36v-1zM710 54q0 23 -11 39q-9 15 -24 15h-517q-15 0 -24 -15q-11 -16 -11 -39v0
q0 -23 11 -39q9 -15 24 -15h517q15 0 24 15q11 16 11 39v0z" />
    <glyph glyph-name="greaterequal" unicode="&#x2265;" horiz-adv-x="800" 
d="M90 203q0 -23 20 -35t41 -1l511 285q21 12 21 36v97q0 25 -21 36l-511 285q-21 11 -41 -1t-20 -35v-1q0 -24 20 -35l452 -262q20 -12 20 -35q0 -24 -20 -36l-452 -261q-20 -12 -20 -36v-1zM710 54q0 23 -11 39q-9 15 -24 15h-517q-15 0 -24 -15q-11 -16 -11 -39v0
q0 -23 11 -39q9 -15 24 -15h517q15 0 24 15q11 16 11 39v0z" />
    <glyph glyph-name="uniF001" unicode="&#xf001;" horiz-adv-x="1073" 
 />
    <glyph glyph-name="uniF001" unicode="&#xfb01;" horiz-adv-x="1073" 
 />
    <glyph glyph-name="uniF002" unicode="&#xf002;" horiz-adv-x="1081" 
 />
    <glyph glyph-name="uniF002" unicode="&#xfb02;" horiz-adv-x="1081" 
 />
  </font>
</defs>
</svg>
